<svg id="Layer_1" data-name="Layer 1" xmlns="http://www.w3.org/2000/svg" viewBox="0 0 756.57 139.65">
  <title>title</title>
  <g>
    <path d="M146.38,6.69V69.87H131V34.23L116.32,69.87H104.89L90.22,34.23V69.87H74.83V6.69H92.47l18.18,43.56L128.74,6.69Z" transform="translate(-6.22 -5.04)" style="fill: #fff"/>
    <path d="M195.52,69.87,192,59.25H169.33l-3.51,10.62H149.44l22-63.36h18.72L212,69.87ZM173.2,47.55h14.94L180.67,25Z" transform="translate(-6.22 -5.04)" style="fill: #fff"/>
    <path d="M230.44,45.3V69.87H215.05V6.69H240q11,0,17.1,5.67A18,18,0,0,1,263.2,26a19.68,19.68,0,0,1-3.33,10.71Q256.54,42,249,44.13l15.48,25.74h-18L232.24,45.3Zm0-26.91V33.6H240a7.05,7.05,0,0,0,7.56-7.52,7.67,7.67,0,0,0-2.07-5.53A7.25,7.25,0,0,0,240,18.39Z" transform="translate(-6.22 -5.04)" style="fill: #fff"/>
    <path d="M286.06,69.87H270.67V6.69h15.39V34.41L306.94,6.69H327.1l-26,31.59,26,31.59H307.3L286.06,42Z" transform="translate(-6.22 -5.04)" style="fill: #fdff8d"/>
    <path d="M369.22,6.51v11.7H346.36V31.8h20.16V43.5H346.36V58.17h22.86v11.7H331V6.51Z" transform="translate(-6.22 -5.04)" style="fill: #fff"/>
    <path d="M373.63,18.39V6.69h49.86v11.7H406.21V69.87H390.82V18.39Z" transform="translate(-6.22 -5.04)" style="fill: #fff"/>
    <path d="M428.17,69.87V6.69h15.39V69.87Z" transform="translate(-6.22 -5.04)" style="fill: #fff"/>
    <path d="M493.69,6.51h15.39V69.87H493.69L467.95,30V69.87H452.56V6.51h15.39l25.74,39.87Z" transform="translate(-6.22 -5.04)" style="fill: #fff"/>
    <path d="M523.79,61.27q-9.41-9.13-9.41-23.17t9.41-23.17a31.76,31.76,0,0,1,23-9.14,32.46,32.46,0,0,1,18.72,5.58,29.1,29.1,0,0,1,11.43,15.48H558.58a12.09,12.09,0,0,0-11.52-6.93q-7.92,0-12.47,5T530,38.1q0,8.28,4.54,13.23t12.2,5a14,14,0,0,0,9-2.75,13.23,13.23,0,0,0,4.63-7.33H542.56V34.5h34.38V46.2q-1.71,8.64-9.45,16.11a28.47,28.47,0,0,1-9.13,5.85,30,30,0,0,1-11.57,2.25A31.75,31.75,0,0,1,523.79,61.27Z" transform="translate(-6.22 -5.04)" style="fill: #fff"/>
    <path d="M643.08,6.51v11.7H620.22V31.8h20.16V43.5H620.22V58.17h22.86v11.7H604.83V6.51Z" transform="translate(-6.22 -5.04)" style="fill: #fff"/>
    <path d="M692.94,6.51h15.39V69.87H692.94L667.2,30V69.87H651.81V6.51H667.2l25.74,39.87Z" transform="translate(-6.22 -5.04)" style="fill: #fff"/>
    <path d="M90.22,119.3v24.57H74.83V80.69H99.76q11,0,17.1,5.67A18,18,0,0,1,123,100a19.68,19.68,0,0,1-3.33,10.71q-3.33,5.22-10.89,7.38l15.48,25.74h-18L92,119.3Zm0-26.91V107.6h9.54a7.05,7.05,0,0,0,7.56-7.52,7.67,7.67,0,0,0-2.07-5.53,7.25,7.25,0,0,0-5.49-2.16Z" transform="translate(-6.22 -5.04)" style="fill: #fff"/>
    <path d="M168.7,80.51v11.7H145.84V105.8H166v11.7H145.84v14.67H168.7v11.7H130.45V80.51Z" transform="translate(-6.22 -5.04)" style="fill: #fff"/>
    <path d="M199.66,80.69q15.12,0,24.84,8.78t9.72,22.77q0,14-9.72,22.81t-24.84,8.82H177.43V80.69Zm-6.84,51.48h6.84q8.82,0,13.86-5.4t5-14.49q0-9.09-5-14.49t-13.86-5.4h-6.84Z" transform="translate(-6.22 -5.04)" style="fill: #fff"/>
    <path d="M277.69,80.51v11.7H254.83V105.8H275v11.7H254.83v14.67h22.86v11.7H239.44V80.51Z" transform="translate(-6.22 -5.04)" style="fill: #fff"/>
    <path d="M307.84,91.94a7.15,7.15,0,0,0-4.73,1.53,5.4,5.4,0,0,0-1.84,4.41,6.35,6.35,0,0,0,1.71,4.64,11.16,11.16,0,0,0,4.46,2.7q2.74.94,6.12,1.8a69.18,69.18,0,0,1,6.71,2.07,29.48,29.48,0,0,1,6.08,3,13.23,13.23,0,0,1,4.46,5.08,16.87,16.87,0,0,1,1.71,7.88A17.64,17.64,0,0,1,326,138.78q-6.53,5.72-17.19,5.71t-17.19-5.13q-6.53-5.13-6.52-14.58h16.38q.63,7.56,7.74,7.56a7.38,7.38,0,0,0,5.22-1.75,5.82,5.82,0,0,0,1.89-4.46,6,6,0,0,0-1.71-4.41,11.92,11.92,0,0,0-4.46-2.7q-2.75-1-6.12-1.85a61.46,61.46,0,0,1-6.71-2.11,32.73,32.73,0,0,1-6.08-3,12.84,12.84,0,0,1-4.46-5,16.65,16.65,0,0,1-1.71-7.79,17.25,17.25,0,0,1,6.57-14.13q6.57-5.31,16.78-5.31t16.52,4.64q6.3,4.64,6.57,14.63H314.77a8.45,8.45,0,0,0-2.21-5.27A6.4,6.4,0,0,0,307.84,91.94Z" transform="translate(-6.22 -5.04)" style="fill: #fff"/>
    <path d="M384.07,91.94a7.15,7.15,0,0,0-4.72,1.53,5.4,5.4,0,0,0-1.84,4.41,6.35,6.35,0,0,0,1.71,4.64,11.16,11.16,0,0,0,4.46,2.7q2.75.94,6.12,1.8a69.14,69.14,0,0,1,6.71,2.07,29.5,29.5,0,0,1,6.08,3,13.24,13.24,0,0,1,4.46,5.08,16.88,16.88,0,0,1,1.71,7.88,17.64,17.64,0,0,1-6.52,13.73q-6.53,5.72-17.19,5.71t-17.19-5.13q-6.53-5.13-6.53-14.58h16.38q.63,7.56,7.74,7.56a7.37,7.37,0,0,0,5.22-1.75,5.82,5.82,0,0,0,1.89-4.46,6,6,0,0,0-1.71-4.41,11.92,11.92,0,0,0-4.46-2.7q-2.75-1-6.12-1.85a61.46,61.46,0,0,1-6.71-2.11,32.71,32.71,0,0,1-6.08-3,12.84,12.84,0,0,1-4.46-5,16.65,16.65,0,0,1-1.71-7.79,17.25,17.25,0,0,1,6.57-14.13q6.57-5.31,16.79-5.31t16.51,4.64q6.3,4.64,6.57,14.63H391a8.45,8.45,0,0,0-2.21-5.27A6.4,6.4,0,0,0,384.07,91.94Z" transform="translate(-6.22 -5.04)" style="fill: #fff"/>
    <path d="M422.09,135.32q-9.41-9.18-9.41-23.22t9.41-23.17a33.51,33.51,0,0,1,46,0q9.31,9.14,9.31,23.17T468,135.32a33.33,33.33,0,0,1-45.95,0Zm35.1-10q4.54-4.95,4.54-13.23t-4.54-13.23q-4.55-4.95-12.15-5t-12.15,5q-4.55,5-4.54,13.23t4.54,13.23q4.54,5,12.15,5T457.19,125.33Z" transform="translate(-6.22 -5.04)" style="fill: #fff"/>
    <path d="M488.51,135.27q-9.41-9.13-9.41-23.17t9.41-23.17a31.76,31.76,0,0,1,23-9.14,32.46,32.46,0,0,1,18.72,5.58,29.1,29.1,0,0,1,11.43,15.48H523.3a12.09,12.09,0,0,0-11.52-6.93q-7.92,0-12.47,5t-4.54,13.23q0,8.28,4.54,13.23t12.47,5a12.09,12.09,0,0,0,11.52-6.93h18.36a29.09,29.09,0,0,1-11.43,15.48,32.45,32.45,0,0,1-18.72,5.58A31.75,31.75,0,0,1,488.51,135.27Z" transform="translate(-6.22 -5.04)" style="fill: #fff"/>
    <path d="M547.06,143.87V80.69h15.39v63.18Z" transform="translate(-6.22 -5.04)" style="fill: #fff"/>
    <path d="M611.58,143.87l-3.51-10.62H585.4l-3.51,10.62H565.5l22-63.36h18.72l21.87,63.36Zm-22.32-22.32h14.94L596.74,99Z" transform="translate(-6.22 -5.04)" style="fill: #fff"/>
    <path d="M631.12,80.69H646.5v51.48h19.17v11.7H631.12Z" transform="translate(-6.22 -5.04)" style="fill: #fff"/>
    <path d="M708,80.51v11.7H685.11V105.8h20.16v11.7H685.11v14.67H708v11.7H669.72V80.51Z" transform="translate(-6.22 -5.04)" style="fill: #fff"/>
    <path d="M738.12,91.94a7.15,7.15,0,0,0-4.72,1.53,5.4,5.4,0,0,0-1.85,4.41,6.36,6.36,0,0,0,1.71,4.64,11.17,11.17,0,0,0,4.46,2.7q2.75.94,6.12,1.8a69.23,69.23,0,0,1,6.71,2.07,29.5,29.5,0,0,1,6.08,3,13.24,13.24,0,0,1,4.46,5.08,16.88,16.88,0,0,1,1.71,7.88,17.64,17.64,0,0,1-6.53,13.73q-6.53,5.72-17.19,5.71t-17.19-5.13q-6.53-5.13-6.52-14.58h16.38q.63,7.56,7.74,7.56a7.38,7.38,0,0,0,5.22-1.75,5.82,5.82,0,0,0,1.89-4.46,6,6,0,0,0-1.71-4.41,11.92,11.92,0,0,0-4.46-2.7q-2.75-1-6.12-1.85a61.52,61.52,0,0,1-6.71-2.11,32.73,32.73,0,0,1-6.07-3,12.83,12.83,0,0,1-4.46-5,16.64,16.64,0,0,1-1.71-7.79,17.25,17.25,0,0,1,6.57-14.13q6.57-5.31,16.79-5.31t16.51,4.64q6.3,4.64,6.57,14.63H745.05a8.44,8.44,0,0,0-2.21-5.27A6.4,6.4,0,0,0,738.12,91.94Z" transform="translate(-6.22 -5.04)" style="fill: #fff"/>
  </g>
  <g>
    <path d="M53.63,135.86H39.29v-5.13H53.63a6.63,6.63,0,0,1,5.1,2,7.82,7.82,0,0,1,0,10,6.64,6.64,0,0,1-5.12,1.95v-5.1A2.7,2.7,0,0,0,55.4,139a1.69,1.69,0,0,0,.57-1.32,1.73,1.73,0,0,0-.57-1.33A2.55,2.55,0,0,0,53.63,135.86Z" transform="translate(-6.22 -5.04)" style="fill: #fff"/>
    <path d="M57.5,125.08a10.36,10.36,0,0,1-7.74,3.13A10.31,10.31,0,0,1,42,125.08a11.17,11.17,0,0,1,0-15.33,10.36,10.36,0,0,1,7.72-3.1,10.39,10.39,0,0,1,7.74,3.12,11.11,11.11,0,0,1,0,15.32Zm-3.33-11.7a6.27,6.27,0,0,0-4.41-1.52,6.27,6.27,0,0,0-4.41,1.52,5.8,5.8,0,0,0,0,8.1A6.27,6.27,0,0,0,49.76,123a6.26,6.26,0,0,0,4.41-1.51,5.79,5.79,0,0,0,0-8.1Z" transform="translate(-6.22 -5.04)" style="fill: #fff"/>
    <path d="M52.16,99.71h8.19v5.13H39.29V96.53a8.07,8.07,0,0,1,1.89-5.7,6,6,0,0,1,4.56-2,6.56,6.56,0,0,1,3.57,1.11,6.06,6.06,0,0,1,2.46,3.63l8.58-5.16v6l-8.19,4.74Zm-9,0h5.07V96.53A2.35,2.35,0,0,0,45.75,94a2.56,2.56,0,0,0-1.84.69,2.42,2.42,0,0,0-.72,1.83Z" transform="translate(-6.22 -5.04)" style="fill: #fff"/>
    <path d="M39.23,72.59V67.46H60.35v5.13L47.06,81.17H60.35V86.3H39.23V81.17l13.29-8.58Z" transform="translate(-6.22 -5.04)" style="fill: #fff"/>
    <path d="M60.35,51.08l-3.54,1.17v7.56L60.35,61v5.46L39.23,59.13V52.88l21.12-7.29Zm-7.44,7.44v-5L45.41,56Z" transform="translate(-6.22 -5.04)" style="fill: #fff"/>
    <path d="M39.29,37.17a11.88,11.88,0,0,1,2.92-8.28,9.75,9.75,0,0,1,7.59-3.24,9.8,9.8,0,0,1,7.61,3.24,11.85,11.85,0,0,1,2.94,8.28v7.41H39.29Zm17.16,2.28V37.17a6,6,0,0,0-1.8-4.62,6.79,6.79,0,0,0-4.83-1.68A6.79,6.79,0,0,0,45,32.55a6,6,0,0,0-1.8,4.62v2.28Z" transform="translate(-6.22 -5.04)" style="fill: #fff"/>
    <path d="M60.35,10.53,56.81,11.7v7.56l3.54,1.17v5.46L39.23,18.57V12.33L60.35,5ZM52.91,18V13l-7.5,2.49Z" transform="translate(-6.22 -5.04)" style="fill: #fff"/>
  </g>
  <g>
    <path d="M6.22,142.41V126h5.4v10.84h4.61a6,6,0,0,1-1.44-4.12,9.94,9.94,0,0,1,.81-4.23,6.3,6.3,0,0,1,2.14-2.63,10,10,0,0,1,5.65-1.76,9,9,0,0,1,6.68,2.48,9.23,9.23,0,0,1,2.47,6.8,10.38,10.38,0,0,1-2.07,6.82A7.65,7.65,0,0,1,25.12,143v-6.08a2.58,2.58,0,0,0,1.71-1.12,4.26,4.26,0,0,0,.67-2.52,2.93,2.93,0,0,0-1.06-2.43A4.41,4.41,0,0,0,23.6,130a3.93,3.93,0,0,0-2.74.88,3,3,0,0,0-1,2.36,3.49,3.49,0,0,0,.63,2.25,2.6,2.6,0,0,0,1.57,1v5.94Z" transform="translate(-6.22 -5.04)" style="fill: #fff"/>
    <path d="M27.31,112.89v-2.2h5.22v3.13A8.15,8.15,0,0,1,31,119.07q-1.49,1.85-5.13,1.85H17.56v1.87H12.44v-1.87H7.55v-6.16h4.9v-4h5.11v4h8.35Q27.31,114.77,27.31,112.89Z" transform="translate(-6.22 -5.04)" style="fill: #fff"/>
    <path d="M29.9,107.1a10.44,10.44,0,0,1-7.38,2.66,10.51,10.51,0,0,1-7.4-2.66,8.49,8.49,0,0,1-2.9-6.5,6.82,6.82,0,0,1,2.84-5.89H12.44V88.56H32.53v6.16H29.62a7,7,0,0,1,3.17,6A8.42,8.42,0,0,1,29.9,107.1ZM26.16,96a4.89,4.89,0,0,0-3.67-1.33A4.83,4.83,0,0,0,18.83,96a4.28,4.28,0,0,0,0,6.12,4.89,4.89,0,0,0,3.67,1.33,4.83,4.83,0,0,0,3.65-1.33,4.28,4.28,0,0,0,0-6.12Z" transform="translate(-6.22 -5.04)" style="fill: #fff"/>
  </g>
  <line x1="16.78" y1="75.96" x2="16.78" y2="1.96" style="fill: none;stroke: #fff;stroke-miterlimit: 10;stroke-width: 8px"/>
</svg>
