<svg xmlns="http://www.w3.org/2000/svg" viewBox="0 0 203 77"><title>nouxs</title><g id="bg"><rect width="203" height="77"/></g><g id="nouxs"><path d="M62.59,36.85V57.08H56.65V9.25h5.63c.24,0,.34,0,.39.31Q64.22,18.3,65.79,27l.69,3.82a.28.28,0,0,0,.1.17V9.27h6V57.08H66.86c-.22,0-.3-.06-.34-.28q-1.08-5.65-2.17-11.29L62.71,37a1.3,1.3,0,0,0-.07-.19Z" style="fill:#fff"/><path d="M74.36,33.2q0-8.28,0-16.56a7.81,7.81,0,0,1,4.31-7.26A8,8,0,0,1,89,11.8a7.9,7.9,0,0,1,1.54,4.87q0,10.74,0,21.48c0,3.89,0,7.78,0,11.67a8.18,8.18,0,0,1-5.67,7.75,8.09,8.09,0,0,1-10.3-6,9.57,9.57,0,0,1-.18-2Q74.35,41.4,74.36,33.2Zm10.05,0q0-8.56,0-17.12c0-.14,0-.27,0-.41A1.92,1.92,0,0,0,83.13,14a1.83,1.83,0,0,0-2,.39A2.12,2.12,0,0,0,80.4,16q0,17.15,0,34.3c0,.1,0,.21,0,.31a2,2,0,0,0,2.5,1.84,1.93,1.93,0,0,0,1.51-2Q84.42,41.85,84.42,33.19Z" style="fill:#fff"/><path d="M102.37,9.26h6.07c0,.12,0,.23,0,.34,0,13.39,0,26.78,0,40.17a8.24,8.24,0,0,1-6.15,7.92,8.1,8.1,0,0,1-9.76-5.82A8,8,0,0,1,92.33,50q0-9.63,0-19.26,0-10.52,0-21V9.27h6v.44q0,20.29,0,40.58a2.11,2.11,0,0,0,.77,1.8,1.91,1.91,0,0,0,2.09.25,1.82,1.82,0,0,0,1.15-1.69c0-.19,0-.38,0-.56q0-20.2,0-40.39Z" style="fill:#fff"/><path d="M118.89,20.55c.06-.16.1-.25.12-.34l1.18-4.92q.68-2.86,1.36-5.72c0-.16.09-.26.28-.26h5.46l.17,0-.32,1.37q-.93,4-1.86,7.91c-.55,2.34-1.12,4.68-1.67,7-.45,1.9-.89,3.79-1.33,5.69a7.16,7.16,0,0,1-.19.75,3.77,3.77,0,0,0,0,2.23c.67,2.74,1.3,5.5,1.95,8.24l2,8.24,1.41,6c0,.08,0,.16,0,.3h-5.52c-.25,0-.34-.08-.39-.32Q120.43,52,119.3,47.3q-.14-.59-.29-1.18a.45.45,0,0,0-.16-.26c-.11.43-.22.85-.32,1.28q-1.11,4.76-2.22,9.53c-.07.31-.19.42-.52.41-1.7,0-3.41,0-5.11,0-.26,0-.38,0-.3-.35.5-2.09,1-4.18,1.48-6.27l1.8-7.66,2-8.3c.07-.3.12-.62.22-.91a2,2,0,0,0-.1-1.16q-.84-3.59-1.69-7.18l-1.61-6.87q-1-4.37-2.06-8.73c-.06-.27,0-.33.25-.33h5.27c.17,0,.3,0,.36.24.53,2.33,1.07,4.65,1.62,7q.44,1.89.89,3.77A2.21,2.21,0,0,0,118.89,20.55Z" style="fill:#fff"/><path d="M144.76,44.11c0,2.2,0,4.39,0,6.59a15.72,15.72,0,0,1-.3,2.48,6.84,6.84,0,0,1-3.54,4.16,5.32,5.32,0,0,1-2.42.55c-1.34,0-2.68,0-4-.06a4.4,4.4,0,0,1-2.75-1,12.36,12.36,0,0,1-1.06-.87,7.33,7.33,0,0,1-2-4.92c-.05-2.47,0-4.93,0-7.4a2.93,2.93,0,0,1,.07-.62.39.39,0,0,1,.66-.24,1.49,1.49,0,0,1,.27.26,7.12,7.12,0,0,0,3.14,2.26c.52.2.64.38.64.94,0,1.23,0,2.47,0,3.7a5.59,5.59,0,0,0,.13,1.3,1.2,1.2,0,0,0,1.18,1c.47,0,.94,0,1.41,0,.77,0,1.55,0,2.32,0a1.47,1.47,0,0,0,1.56-1.6c0-.36,0-.73,0-1.1q0-5.69,0-11.38c0-.32,0-.65-.05-1a1.63,1.63,0,0,0-.73-1.29.65.65,0,0,0-.35-.09c-1.25,0-2.51,0-3.76-.07a6.38,6.38,0,0,1-4.09-1.57,6.53,6.53,0,0,1-2.21-4.2,18.46,18.46,0,0,1-.13-2c0-4.16,0-8.32,0-12.48a7.9,7.9,0,0,1,1-3.95,6.07,6.07,0,0,1,2.14-2.22,5.26,5.26,0,0,1,2.82-.88c1.48,0,3,0,4.44,0A4,4,0,0,1,140.6,9a6.2,6.2,0,0,1,3.06,2.65A8.38,8.38,0,0,1,144.72,15c0,.25,0,.5,0,.75q0,3.48,0,7a.87.87,0,0,1,0,.34c-.07.16-.16.39-.29.43a.58.58,0,0,1-.47-.21,8.15,8.15,0,0,0-2.35-1.94,6.25,6.25,0,0,0-1-.43c-.45-.17-.54-.25-.54-.75,0-.91,0-1.81,0-2.72,0-.65,0-1.29-.06-1.94a1.51,1.51,0,0,0-1.69-1.54c-1.18,0-2.36,0-3.54.06-.8,0-1.14.39-1.3,1.19a10.61,10.61,0,0,0-.1,1.77c0,.45,0,.9,0,1.35,0,2.84,0,5.69,0,8.53,0,.78,0,1.57.06,2.35a1.42,1.42,0,0,0,1.15,1.1c1.4,0,2.8,0,4.2,0a5.58,5.58,0,0,1,3.94,1.8,7.12,7.12,0,0,1,2,5c.05,2.34,0,4.68,0,7Z" style="fill:#fff"/><path d="M79.45,62.76a1,1,0,0,1,1.07-.47c.46.1.72.49.73,1.11,0,1.59,0,3.18,0,4.76,0,.19-.06.27-.25.26-.86,0-.7.09-.7-.65,0-1.4,0-2.8,0-4.2,0-.23-.07-.42-.3-.44a.54.54,0,0,0-.39.18c-.07.07-.06.23-.06.36,0,1.45,0,2.9,0,4.36,0,.31-.06.43-.39.41-.65,0-.56.08-.56-.58,0-1.33,0-2.65,0-4,0-.11,0-.23,0-.34a.39.39,0,0,0-.38-.42c-.24,0-.34.17-.39.38a1.75,1.75,0,0,0,0,.34c0,1.41,0,2.82,0,4.23,0,.29-.09.4-.38.36a.81.81,0,0,0-.22,0c-.25,0-.33-.07-.32-.32,0-1.06,0-2.11,0-3.17,0-.74,0-1.48,0-2.23,0-.24.06-.37.32-.32l.65.11a.28.28,0,0,0,.14,0A1,1,0,0,1,79.45,62.76Z" style="fill:#fff"/><path d="M131,62.31v-1c0-.13,0-.25,0-.38,0-.68-.1-.57.6-.6.27,0,.31.1.31.33,0,1.41,0,2.82,0,4.23,0,.75,0,1.5,0,2.26a1.32,1.32,0,1,1-2.64,0c0-1.15,0-2.3,0-3.45A1.38,1.38,0,0,1,131,62.31Zm0,3.11c0-.62,0-1.23,0-1.85,0-.26-.1-.45-.36-.45s-.38.18-.38.44q0,1.86,0,3.73c0,.26.12.44.38.43s.37-.19.36-.45C131,66.64,131,66,131,65.41Z" style="fill:#fff"/><path d="M137.12,62.3c0-.46,0-.9,0-1.33s.2-.74.76-.57c.07,0,.13.17.13.26,0,.78,0,1.57,0,2.35,0,1.38,0,2.76,0,4.14a1.33,1.33,0,0,1-1.32,1.4,1.35,1.35,0,0,1-1.33-1.41c0-1.11,0-2.22,0-3.32A1.43,1.43,0,0,1,137.12,62.3Zm-.05,3.14h0c0-.63,0-1.25,0-1.88,0-.26-.1-.45-.36-.45s-.38.18-.38.44q0,1.86,0,3.73c0,.26.12.44.38.44s.36-.19.36-.45C137.07,66.65,137.07,66,137.07,65.44Z" style="fill:#fff"/><path d="M92.49,64c0,1,0,2.07,0,3.1a1.35,1.35,0,0,1-1.3,1.43,1.33,1.33,0,0,1-1.35-1.36c0-1.19,0-2.38,0-3.57a1.33,1.33,0,0,1,1.52-1.33c.22,0,.23-.08.23-.23,0-.46,0-.92,0-1.38,0-.23.08-.31.31-.3.68,0,.59-.11.59.6C92.49,62,92.49,63,92.49,64Zm-1.7,1.38c0,.6,0,1.21,0,1.81,0,.31.15.52.39.5s.39-.23.39-.48q0-1.83,0-3.66c0-.25-.11-.45-.39-.47s-.38.2-.38.51C90.79,64.21,90.79,64.8,90.79,65.4Z" style="fill:#fff"/><path d="M56.65,64.42c0-1,0-1.94,0-2.91a1.31,1.31,0,0,1,2.57-.28,2.55,2.55,0,0,1,.07.56c0,.44,0,.88,0,1.32,0,.19-.07.26-.26.26-.85,0-.68.09-.7-.66,0-.39,0-.77,0-1.16s-.09-.43-.37-.45-.38.19-.41.42a3.31,3.31,0,0,0,0,.44q0,2.52,0,5a1.93,1.93,0,0,0,0,.31c0,.22.14.41.4.4s.38-.19.38-.45c0-.5,0-1,0-1.5,0-.3.09-.37.37-.36.59,0,.59,0,.58.58a10.42,10.42,0,0,1-.06,1.53,1.25,1.25,0,0,1-1.33,1,1.26,1.26,0,0,1-1.25-1.33c0-.93,0-1.86,0-2.79Z" style="fill:#fff"/><path d="M76.47,68.4a9.42,9.42,0,0,1-1.52.1,1.21,1.21,0,0,1-1.09-1.15,7.28,7.28,0,0,1,0-1.22,1.2,1.2,0,0,1,.51-.9c.31-.23.65-.42,1-.64a.5.5,0,0,0,.19-.31,6.93,6.93,0,0,0,0-.78.35.35,0,0,0-.36-.39.36.36,0,0,0-.38.38c0,.29,0,.58,0,.88s-.06.23-.24.24c-.71,0-.71,0-.72-.67a1.49,1.49,0,0,1,.63-1.44,1.24,1.24,0,0,1,1.33,0,1.21,1.21,0,0,1,.68,1.11c0,1.52,0,3,0,4.57C76.49,68.21,76.47,68.29,76.47,68.4Zm-.94-2.79c-.36.14-.63.32-.68.63a5,5,0,0,0,0,1.2c0,.1.24.25.36.25a.45.45,0,0,0,.32-.3C75.55,66.82,75.53,66.24,75.53,65.61Z" style="fill:#fff"/><path d="M109.94,62.5a4,4,0,0,1,.4-.17.84.84,0,0,1,1.15.68,3.08,3.08,0,0,1,.06.59c0,1.5,0,3,0,4.51,0,.25-.06.33-.32.32-.6,0-.61,0-.62-.6,0-1.39,0-2.78,0-4.17,0-.07,0-.17,0-.21s-.24-.33-.34-.32-.28.19-.39.32,0,.18,0,.28c0,1.44,0,2.88,0,4.33,0,.27-.05.4-.36.38-.69,0-.59.09-.6-.6,0-1.68,0-3.36,0-5,0-.33.1-.43.41-.39s.41,0,.61,0Z" style="fill:#fff"/><path d="M135,66c0,.72,0,1.44,0,2.16,0,.22-.07.29-.29.29a4.94,4.94,0,0,0-.83.1,1.31,1.31,0,0,1-1.53-1.19c0-.29,0-.59,0-.88a1.41,1.41,0,0,1,.65-1.34c.27-.19.57-.34.84-.54a.58.58,0,0,0,.2-.35,3.41,3.41,0,0,0,0-.63c0-.31-.17-.51-.4-.51s-.38.2-.39.52,0,.46,0,.69-.06.3-.29.3c-.77,0-.61.06-.62-.61a1.76,1.76,0,0,1,.24-1.17,1.37,1.37,0,0,1,1.29-.54,1.24,1.24,0,0,1,1.07,1.12c0,.85,0,1.71,0,2.57Zm-1-.36-.2.07a1.52,1.52,0,0,0-.5,1.82c.07.11.28.23.37.2a.53.53,0,0,0,.32-.35C134.07,66.78,134,66.22,134,65.61Z" style="fill:#fff"/><path d="M121.89,65.41c0-.58,0-1.17,0-1.75a1.32,1.32,0,1,1,2.65,0c0,.56,0,1.13,0,1.69,0,.2-.06.28-.27.28h-1.16c-.2,0-.28.05-.28.27,0,.47,0,.94,0,1.41a.37.37,0,0,0,.36.43c.23,0,.38-.16.39-.43s0-.61,0-.91a.31.31,0,0,1,.21-.21c.73-.07.74-.07.72.68a2.82,2.82,0,0,1-.14.94,1.27,1.27,0,0,1-1.53.71,1.29,1.29,0,0,1-1-1.24c0-.62,0-1.23,0-1.85Zm1-1.44h0q0,.16,0,.31a.41.41,0,0,0,.63.41.22.22,0,0,0,.11-.16,7.05,7.05,0,0,0,0-1.09.51.51,0,0,0-.34-.32.32.32,0,0,0-.38.32C122.83,63.62,122.84,63.8,122.84,64Z" style="fill:#fff"/><path d="M118.45,64.48c0,.29,0,.59,0,.88s-.08.26-.26.25H117c-.19,0-.26.07-.25.26,0,.47,0,.94,0,1.41,0,.27.12.43.38.43s.37-.18.37-.42,0-.61,0-.91a.31.31,0,0,1,.21-.22c.73-.07.72-.07.73.68a1.58,1.58,0,0,1-.49,1.39,1.24,1.24,0,0,1-1.32.22,1.22,1.22,0,0,1-.84-1.17c0-1.21,0-2.42,0-3.63a1.34,1.34,0,0,1,1.28-1.39,1.38,1.38,0,0,1,1.36,1.34C118.46,63.9,118.45,64.19,118.45,64.48ZM117.5,64h0c0-.18,0-.35,0-.53a.36.36,0,0,0-.38-.37.35.35,0,0,0-.36.39c0,.29,0,.58,0,.87s.09.34.35.35.45-.08.4-.41A2.21,2.21,0,0,1,117.5,64Z" style="fill:#fff"/><path d="M98.57,65.82c0,.76,0,1.52,0,2.29,0,.24-.07.33-.32.33a3,3,0,0,0-.71.08,1.26,1.26,0,0,1-1.56-1A6.44,6.44,0,0,1,96,66c0-.44.42-.7.75-1a2.49,2.49,0,0,1,.27-.16c.67-.38.76-.58.63-1.35,0-.22-.14-.39-.38-.38a.39.39,0,0,0-.39.41c0,.28,0,.56,0,.85s-.07.24-.24.24c-.86,0-.7.09-.71-.68,0-.92.31-1.4,1-1.61a1.29,1.29,0,0,1,1.6,1.15c0,.78,0,1.57,0,2.35Zm-.91-.25c-.45.23-.75.47-.78.9a7.34,7.34,0,0,0,0,.81c0,.25.13.43.39.44s.37-.18.38-.41c0-.39,0-.79,0-1.18C97.66,66,97.66,65.8,97.66,65.57Z" style="fill:#fff"/><path d="M112.73,65.41c0-.9,0-1.8,0-2.7,0-.24.07-.36.32-.32s.45.08.68.11a.39.39,0,0,0,.19-.07.92.92,0,0,1,1.45.85c0,1.62,0,3.24,0,4.86,0,.22-.08.29-.29.29-.7,0-.62.08-.62-.62,0-1.31,0-2.61,0-3.92a1.13,1.13,0,0,0,0-.46c-.06-.13-.21-.3-.32-.3s-.28.14-.37.26,0,.22,0,.33c0,1.45,0,2.9,0,4.36,0,.28-.09.36-.36.35-.68,0-.59.07-.59-.58C112.73,67,112.73,66.22,112.73,65.41Z" style="fill:#fff"/><path d="M65.8,65.39c0-.68,0-1.36,0-2a1.28,1.28,0,0,1,1.32-1.09,1.31,1.31,0,0,1,1.25,1.22c0,.63,0,1.25,0,1.88,0,.19-.08.25-.27.25H67c-.22,0-.32.07-.32.31,0,.44,0,.88,0,1.32,0,.27.12.46.39.47s.38-.2.39-.43,0-.58,0-.88.06-.25.24-.24c.83,0,.65-.1.68.64A1.59,1.59,0,0,1,68,68.21a1.27,1.27,0,0,1-1.31.27,1.14,1.14,0,0,1-.85-1c0-.69,0-1.39,0-2.09ZM67.49,64h0a4.53,4.53,0,0,0,0-.47c0-.23-.12-.43-.39-.44s-.38.2-.38.48,0,.52,0,.78.1.36.37.35.43,0,.43-.42C67.49,64.2,67.49,64.11,67.49,64Z" style="fill:#fff"/><path d="M62.73,65.41c0-.9,0-1.8,0-2.7,0-.24.05-.36.31-.32s.44.08.66.1a.48.48,0,0,0,.23-.08.88.88,0,0,1,1.39.69,4.66,4.66,0,0,1,.06.71c0,1.4,0,2.8,0,4.2,0,.31-.07.42-.4.41-.64,0-.56,0-.56-.56,0-1.38,0-2.76,0-4.14,0-.11,0-.26,0-.34s-.24-.27-.36-.27-.28.16-.34.28a1.21,1.21,0,0,0,0,.49c0,1.39,0,2.78,0,4.17,0,.27-.07.36-.36.36-.65,0-.56.07-.56-.57C62.73,67,62.73,66.23,62.73,65.41Z" style="fill:#fff"/><path d="M92.91,65.42c0-.61,0-1.21,0-1.82a1.32,1.32,0,0,1,1.3-1.33,1.36,1.36,0,0,1,1.34,1.31c0,.6,0,1.19,0,1.79,0,.2-.09.25-.26.25H94.13c-.21,0-.32.07-.31.29,0,.44,0,.88,0,1.32a.8.8,0,0,0,0,.18.36.36,0,0,0,.4.31.37.37,0,0,0,.34-.38c0-.3,0-.61,0-.91s.05-.27.25-.26c.87,0,.68-.1.71.68a1.54,1.54,0,0,1-.47,1.36,1.27,1.27,0,0,1-1.35.26,1.23,1.23,0,0,1-.82-1.15C92.89,66.67,92.91,66,92.91,65.42ZM94.6,64c0-.14,0-.27,0-.41s-.09-.45-.35-.47-.4.18-.42.41a6.37,6.37,0,0,0,0,1,.33.33,0,0,0,.23.21c.51.06.54,0,.54-.47Q94.6,64.11,94.6,64Z" style="fill:#fff"/><path d="M141.09,64.5c0,.29,0,.58,0,.88s-.06.24-.24.24c-.39,0-.77,0-1.16,0s-.36.07-.36.34c0,.42,0,.84,0,1.25s.17.52.39.52.39-.2.4-.53,0-.54,0-.81c0-.07.08-.2.13-.2a3.9,3.9,0,0,1,.69,0s.13.11.12.17a7.19,7.19,0,0,1-.05,1.12,1.3,1.3,0,0,1-2.59-.25q0-1.8,0-3.6a1.3,1.3,0,0,1,2.59-.24,11.1,11.1,0,0,1,.08,1.12Zm-1-.47c0-.14,0-.27,0-.41,0-.31-.15-.51-.38-.52s-.39.19-.41.5,0,.5,0,.75.09.37.36.36c.43,0,.43,0,.43-.44Q140.14,64.15,140.14,64Z" style="fill:#fff"/><path d="M62.31,65.43c0,.62,0,1.23,0,1.85a1.31,1.31,0,0,1-1.22,1.27,1.29,1.29,0,0,1-1.36-1,5.32,5.32,0,0,1-.06-.87q0-1.44,0-2.88a1.35,1.35,0,0,1,1.08-1.44,1.29,1.29,0,0,1,1.56,1.21c0,.64,0,1.27,0,1.91Zm-1.7,0h0q0,.92,0,1.85c0,.25.11.44.37.45a.37.37,0,0,0,.4-.42q0-1.85,0-3.69c0-.26-.08-.49-.4-.49s-.37.2-.37.52C60.61,64.22,60.61,64.81,60.61,65.41Z" style="fill:#fff"/><path d="M105.89,65.41c0-.63,0-1.25,0-1.88a1.31,1.31,0,0,1,1.27-1.26,1.29,1.29,0,0,1,1.31,1.14c0,.84,0,1.69,0,2.54,0,.48,0,1,0,1.44a1.3,1.3,0,0,1-2.59-.13c0-.62,0-1.23,0-1.85Zm1.7,0c0-.61,0-1.21,0-1.82,0-.33-.17-.53-.41-.53s-.38.21-.38.52q0,1.78,0,3.57c0,.33.17.54.41.52s.37-.2.38-.52C107.59,66.61,107.58,66,107.58,65.44Z" style="fill:#fff"/><path d="M81.67,65.38c0-.62,0-1.23,0-1.85A1.31,1.31,0,0,1,83,62.27a1.3,1.3,0,0,1,1.3,1.23q0,1.93,0,3.86A1.28,1.28,0,0,1,83,68.55a1.29,1.29,0,0,1-1.3-1.22c0-.32,0-.65,0-1s0-.65,0-1Zm1.7.06c0-.34,0-.69,0-1s0-.63,0-.94-.15-.39-.36-.35-.28.2-.4.32,0,.16,0,.24q0,1.74,0,3.47c0,.35.17.57.41.56s.38-.21.38-.55C83.37,66.59,83.37,66,83.37,65.44Z" style="fill:#fff"/><path d="M86.39,66.79s0-.06,0-.09c0-.69,0-.68-.68-.83a1.11,1.11,0,0,1-.94-.9,5.84,5.84,0,0,1,0-1.7,1.26,1.26,0,0,1,1.35-1,1.34,1.34,0,0,1,1.23,1.31c0,.06,0,.13,0,.19,0,.7.09.6-.62.62-.26,0-.36-.08-.34-.34a4.61,4.61,0,0,0,0-.59.35.35,0,0,0-.36-.36.34.34,0,0,0-.37.35,7,7,0,0,0,0,1.06c0,.12.17.24.29.31a.7.7,0,0,0,.34,0,.92.92,0,0,1,.92.67,3.83,3.83,0,0,1,.05,2.1,1.25,1.25,0,0,1-1.42.86,1.3,1.3,0,0,1-1.14-1.25c0-.05,0-.1,0-.16,0-.69,0-.69.69-.66.18,0,.27.06.26.26s0,.36,0,.53.16.49.38.47.37-.2.36-.46S86.39,66.94,86.39,66.79Z" style="fill:#fff"/><path d="M100.69,66.8c0-.05,0-.1,0-.16,0-.64,0-.64-.62-.75A1.31,1.31,0,0,1,99,64.62c0-.33,0-.67,0-1a1.34,1.34,0,0,1,1.3-1.33,1.37,1.37,0,0,1,1.34,1.28c0,.06,0,.13,0,.19,0,.75.17.66-.73.65-.07,0-.2-.13-.21-.22a4.13,4.13,0,0,1,0-.62c0-.26-.13-.44-.39-.43s-.36.18-.35.43,0,.58,0,.88a.4.4,0,0,0,.4.45c.95.11,1.29.5,1.29,1.47,0,.3,0,.61,0,.91a1.33,1.33,0,0,1-1.31,1.29A1.3,1.3,0,0,1,99,67.23s0-.08,0-.13c0-.68.1-.76.78-.63a.28.28,0,0,1,.17.2c0,.22,0,.44,0,.66a.34.34,0,0,0,.37.38.36.36,0,0,0,.38-.38c0-.18,0-.35,0-.53Z" style="fill:#fff"/><path d="M142.41,64s0,.06,0,.09c0,.73,0,.76.74.81a1.13,1.13,0,0,1,1,1.15c0,.46,0,.92,0,1.38a1.27,1.27,0,0,1-1.12,1.1,1.22,1.22,0,0,1-1.36-.71,5.11,5.11,0,0,1-.15-1.16c0-.06.12-.16.19-.17a1.55,1.55,0,0,1,.53,0,.33.33,0,0,1,.21.22,5.56,5.56,0,0,1,0,.63.36.36,0,0,0,.37.39.34.34,0,0,0,.37-.37c0-.35,0-.71,0-1.06s-.13-.33-.35-.36a1.35,1.35,0,0,1-1.35-1.51,7,7,0,0,1,.05-1,1.3,1.3,0,0,1,1.33-1.08,1.33,1.33,0,0,1,1.26,1.31c0,.08,0,.17,0,.25,0,.64.09.54-.58.56-.29,0-.4-.06-.36-.37a3,3,0,0,0,0-.56c0-.22-.15-.39-.35-.35a.61.61,0,0,0-.37.34,1.44,1.44,0,0,0,0,.53Z" style="fill:#fff"/><path d="M126.65,66.8c0-.1,0-.21,0-.31,0-.45-.07-.52-.51-.57A1.29,1.29,0,0,1,125,64.64c0-.38,0-.75,0-1.13a1.31,1.31,0,0,1,1.3-1.23,1.32,1.32,0,0,1,1.3,1.23c0,.08,0,.17,0,.25,0,.69,0,.69-.69.65-.18,0-.23-.09-.23-.25s0-.4,0-.6-.13-.44-.39-.44-.38.2-.39.45,0,.54,0,.81.14.46.48.5c.87.11,1.19.45,1.22,1.34,0,.37,0,.73,0,1.1a1.31,1.31,0,0,1-2.61,0c0-.14,0-.27,0-.41,0-.44,0-.44.45-.44s.46,0,.46.46a3.07,3.07,0,0,0,0,.38c0,.23.13.41.39.41s.37-.18.39-.41,0-.33,0-.5Z" style="fill:#fff"/><path d="M103.77,65.43c0,.61,0,1.21,0,1.82,0,.3.15.48.38.47s.36-.18.36-.49,0-.54,0-.81,0-.27.25-.26c.87,0,.69-.11.71.68a1.67,1.67,0,0,1-.31,1.24,1.35,1.35,0,0,1-1.45.41,1.33,1.33,0,0,1-.89-1.21c0-1.21,0-2.42,0-3.63a1.32,1.32,0,1,1,2.64,0c0,.09,0,.19,0,.28,0,.62-.15.74-.78.6a.29.29,0,0,1-.16-.21c0-.24,0-.48,0-.72s-.13-.51-.36-.52-.38.19-.38.54q0,.89,0,1.79Z" style="fill:#fff"/><path d="M119.77,65.41c0,.6,0,1.19,0,1.79,0,.32.15.51.38.52s.4-.18.41-.52,0-.54,0-.81a.31.31,0,0,1,.21-.21c.82,0,.68-.1.69.62A1.65,1.65,0,0,1,121,68.2a1.31,1.31,0,0,1-2.12-.54,1.6,1.6,0,0,1-.1-.49c0-1.26,0-2.53.05-3.79a1.28,1.28,0,0,1,1.3-1.12,1.32,1.32,0,0,1,1.28,1.18,5.8,5.8,0,0,1,0,.88.33.33,0,0,1-.22.22c-.64.09-.68,0-.68-.61a3.8,3.8,0,0,0,0-.41c0-.24-.14-.44-.41-.43s-.38.2-.38.45c0,.62,0,1.23,0,1.85Z" style="fill:#fff"/><path d="M68.82,65.4c0-.6,0-1.19,0-1.79a1.32,1.32,0,0,1,1.32-1.35,1.37,1.37,0,0,1,1.33,1.35c0,.21,0,.42,0,.63s-.09.32-.33.32c-.77,0-.62,0-.63-.61,0-.16,0-.31,0-.47s-.14-.39-.35-.36-.29.19-.39.32,0,.2,0,.3q0,1.65,0,3.29a2.81,2.81,0,0,0,0,.28c0,.24.14.41.39.39a.38.38,0,0,0,.36-.43c0-.27,0-.54,0-.81s0-.32.29-.31c.8,0,.64-.1.66.66a1.75,1.75,0,0,1-.31,1.24,1.35,1.35,0,0,1-1.47.42,1.32,1.32,0,0,1-.87-1.19C68.81,66.66,68.82,66,68.82,65.4Z" style="fill:#fff"/><path d="M71.87,62.42c.36,0,.33-.2.33-.44,0-.45,0-.9,0-1.35,0-.19.07-.26.26-.25.75,0,.63-.09.64.62,0,.38,0,.75,0,1.13,0,.15,0,.26.21.28s.14.11.15.18a3.44,3.44,0,0,1,0,.59c0,.06-.07.16-.11.15-.29,0-.25.19-.25.36q0,1.8,0,3.61c0,.18,0,.36,0,.53,0,.6-.13.71-.74.57-.07,0-.15-.2-.15-.3,0-1.43,0-2.86,0-4.3,0-.2.09-.46-.26-.5,0,0-.06-.1-.06-.16C71.87,62.92,71.87,62.68,71.87,62.42Z" style="fill:#fff"/><path d="M88.52,62.39a5.57,5.57,0,0,0,.58,0c.28,0,.38.06.37.36,0,1.53,0,3.07,0,4.6,0,.26,0,.52,0,.78a.63.63,0,0,1,0,.18,4.8,4.8,0,0,1-.73.1.28.28,0,0,1-.2-.19C88.52,66.29,88.52,64.36,88.52,62.39Z" style="fill:#fff"/><path d="M128,65.42c0-.9,0-1.8,0-2.69,0-.25.06-.35.33-.34.63,0,.59-.12.59.58,0,1.7,0,3.4,0,5.1,0,.27-.07.36-.35.35-.64,0-.57.09-.57-.56Q128,66.64,128,65.42Z" style="fill:#fff"/><path d="M89.47,61.5c0,.47,0,.47-.44.47-.6,0-.5,0-.51-.5s0-.47.47-.47S89.46,61,89.47,61.5Z" style="fill:#fff"/><path d="M128,61.37c0-.14-.08-.39.35-.37.71,0,.53,0,.58.7,0,.31-.17.27-.36.27C127.92,62,128,62.07,128,61.37Z" style="fill:#fff"/><path d="M145.43,68c0,.45,0,.45-.5.45s-.4,0-.4-.52,0-.43.42-.43S145.43,67.48,145.43,68Z" style="fill:#fff"/></g></svg>