<svg xmlns="http://www.w3.org/2000/svg" viewBox="0 0 756.57 139.65">
  <title>Asset 1</title>
  <g id="Layer_2" data-name="Layer 2">
    <g id="curvas">
      <g>
        <path d="M140.17,1.65V64.83H124.78V29.19L110.11,64.83H98.68L84,29.19V64.83H68.62V1.65H86.26l18.18,43.56L122.53,1.65Z" style="fill: #fff"/>
        <path d="M189.31,64.83l-3.51-10.62H163.12L159.6,64.83H143.23l22-63.36h18.72l21.87,63.36ZM167,42.51h14.94L174.46,20Z" style="fill: #fff"/>
        <path d="M224.23,40.26V64.83H208.83V1.65h24.93q11,0,17.1,5.67A18,18,0,0,1,257,21a19.68,19.68,0,0,1-3.33,10.71q-3.33,5.22-10.89,7.38l15.48,25.74h-18L226,40.26Zm0-26.91V28.56h9.54A7.05,7.05,0,0,0,241.33,21a7.67,7.67,0,0,0-2.07-5.53,7.25,7.25,0,0,0-5.49-2.16Z" style="fill: #fff"/>
        <path d="M279.85,64.83H264.46V1.65h15.39V29.37L300.73,1.65h20.16l-26,31.59,26,31.59h-19.8l-21.24-27.9Z" style="fill: #fdff8d"/>
        <path d="M363,1.47v11.7H340.14V26.76H360.3v11.7H340.14V53.13H363v11.7H324.75V1.47Z" style="fill: #fff"/>
        <path d="M367.41,13.35V1.65h49.86v11.7H400V64.83H384.6V13.35Z" style="fill: #fff"/>
        <path d="M422,64.83V1.65h15.39V64.83Z" style="fill: #fff"/>
        <path d="M487.47,1.47h15.39V64.83H487.47L461.73,25V64.83H446.34V1.47h15.39l25.74,39.87Z" style="fill: #fff"/>
        <path d="M517.58,56.24q-9.41-9.13-9.41-23.17t9.41-23.17a31.76,31.76,0,0,1,23-9.14,32.46,32.46,0,0,1,18.72,5.58,29.1,29.1,0,0,1,11.43,15.48H552.36a12.09,12.09,0,0,0-11.52-6.93q-7.92,0-12.47,5t-4.54,13.23q0,8.28,4.54,13.23t12.2,5a14,14,0,0,0,9-2.75,13.23,13.23,0,0,0,4.63-7.33H536.34V29.46h34.38v11.7Q569,49.8,561.27,57.27a28.47,28.47,0,0,1-9.13,5.85,30,30,0,0,1-11.57,2.25A31.75,31.75,0,0,1,517.58,56.24Z" style="fill: #fff"/>
        <path d="M636.87,1.47v11.7H614V26.76h20.16v11.7H614V53.13h22.86v11.7H598.62V1.47Z" style="fill: #fff"/>
        <path d="M686.73,1.47h15.39V64.83H686.73L661,25V64.83H645.6V1.47H661l25.74,39.87Z" style="fill: #fff"/>
        <path d="M84,114.26v24.57H68.62V75.65H93.55q11,0,17.1,5.67A18,18,0,0,1,116.77,95a19.68,19.68,0,0,1-3.33,10.71q-3.33,5.22-10.89,7.38L118,138.83H100L85.81,114.26Zm0-26.91v15.21h9.54A7.05,7.05,0,0,0,101.11,95,7.67,7.67,0,0,0,99,89.51a7.25,7.25,0,0,0-5.49-2.16Z" style="fill: #fff"/>
        <path d="M162.49,75.47v11.7H139.63v13.59h20.16v11.7H139.63v14.67h22.86v11.7H124.24V75.47Z" style="fill: #fff"/>
        <path d="M193.44,75.65q15.12,0,24.84,8.78T228,107.2q0,14-9.72,22.81t-24.84,8.82H171.21V75.65Zm-6.84,51.48h6.84q8.82,0,13.86-5.4t5-14.49q0-9.09-5-14.49t-13.86-5.4H186.6Z" style="fill: #fff"/>
        <path d="M271.47,75.47v11.7H248.61v13.59h20.16v11.7H248.61v14.67h22.86v11.7H233.22V75.47Z" style="fill: #fff"/>
        <path d="M301.62,86.9a7.15,7.15,0,0,0-4.73,1.53,5.4,5.4,0,0,0-1.84,4.41,6.35,6.35,0,0,0,1.71,4.64,11.16,11.16,0,0,0,4.46,2.7q2.74.94,6.12,1.8A69.18,69.18,0,0,1,314,104a29.48,29.48,0,0,1,6.08,3,13.23,13.23,0,0,1,4.46,5.08,16.87,16.87,0,0,1,1.71,7.88,17.64,17.64,0,0,1-6.52,13.73q-6.53,5.72-17.19,5.71t-17.19-5.13q-6.53-5.13-6.52-14.58h16.38q.63,7.56,7.74,7.56a7.38,7.38,0,0,0,5.22-1.75,5.82,5.82,0,0,0,1.89-4.46,6,6,0,0,0-1.71-4.41,11.92,11.92,0,0,0-4.46-2.7q-2.75-1-6.12-1.85a61.46,61.46,0,0,1-6.71-2.11,32.73,32.73,0,0,1-6.08-3,12.84,12.84,0,0,1-4.46-5,16.65,16.65,0,0,1-1.71-7.79,17.25,17.25,0,0,1,6.57-14.13q6.57-5.31,16.78-5.31t16.52,4.64Q325,84,325.29,94H308.55a8.45,8.45,0,0,0-2.21-5.27A6.4,6.4,0,0,0,301.62,86.9Z" style="fill: #fff"/>
        <path d="M377.85,86.9a7.15,7.15,0,0,0-4.72,1.53,5.4,5.4,0,0,0-1.84,4.41A6.35,6.35,0,0,0,373,97.48a11.16,11.16,0,0,0,4.46,2.7q2.75.94,6.12,1.8a69.14,69.14,0,0,1,6.71,2.07,29.5,29.5,0,0,1,6.08,3,13.24,13.24,0,0,1,4.46,5.08,16.88,16.88,0,0,1,1.71,7.88A17.64,17.64,0,0,1,396,133.75q-6.53,5.72-17.19,5.71t-17.19-5.13q-6.53-5.13-6.53-14.58h16.38q.63,7.56,7.74,7.56a7.37,7.37,0,0,0,5.22-1.75,5.82,5.82,0,0,0,1.89-4.46,6,6,0,0,0-1.71-4.41,11.92,11.92,0,0,0-4.46-2.7q-2.75-1-6.12-1.85a61.46,61.46,0,0,1-6.71-2.11,32.71,32.71,0,0,1-6.08-3,12.84,12.84,0,0,1-4.46-5,16.65,16.65,0,0,1-1.71-7.79,17.25,17.25,0,0,1,6.57-14.13q6.57-5.31,16.79-5.31T395,79.39Q401.25,84,401.52,94H384.78a8.45,8.45,0,0,0-2.21-5.27A6.4,6.4,0,0,0,377.85,86.9Z" style="fill: #fff"/>
        <path d="M415.88,130.28q-9.41-9.18-9.41-23.22t9.41-23.17a33.51,33.51,0,0,1,46,0q9.31,9.14,9.31,23.17t-9.36,23.22a33.33,33.33,0,0,1-45.95,0Zm35.1-10q4.54-4.95,4.54-13.23T451,93.83q-4.55-4.95-12.15-5t-12.15,5q-4.55,5-4.54,13.23t4.54,13.23q4.54,5,12.15,5T451,120.29Z" style="fill: #fff"/>
        <path d="M482.3,130.24q-9.41-9.13-9.41-23.17t9.41-23.17a31.76,31.76,0,0,1,23-9.14A32.46,32.46,0,0,1,524,80.33a29.1,29.1,0,0,1,11.43,15.48H517.08a12.09,12.09,0,0,0-11.52-6.93q-7.92,0-12.47,5t-4.54,13.23q0,8.28,4.54,13.23t12.47,5a12.09,12.09,0,0,0,11.52-6.93h18.36A29.09,29.09,0,0,1,524,133.79a32.45,32.45,0,0,1-18.72,5.58A31.75,31.75,0,0,1,482.3,130.24Z" style="fill: #fff"/>
        <path d="M540.84,138.83V75.65h15.39v63.18Z" style="fill: #fff"/>
        <path d="M605.37,138.83l-3.51-10.62H579.18l-3.51,10.62H559.29l22-63.36H600l21.87,63.36Zm-22.32-22.32H598L590.52,94Z" style="fill: #fff"/>
        <path d="M624.9,75.65h15.39v51.48h19.17v11.7H624.9Z" style="fill: #fff"/>
        <path d="M701.76,75.47v11.7H678.9v13.59h20.16v11.7H678.9v14.67h22.86v11.7H663.51V75.47Z" style="fill: #fff"/>
        <path d="M731.91,86.9a7.15,7.15,0,0,0-4.72,1.53,5.4,5.4,0,0,0-1.85,4.41A6.36,6.36,0,0,0,727,97.48a11.17,11.17,0,0,0,4.46,2.7q2.75.94,6.12,1.8a69.23,69.23,0,0,1,6.71,2.07,29.5,29.5,0,0,1,6.08,3,13.24,13.24,0,0,1,4.46,5.08,16.88,16.88,0,0,1,1.71,7.88A17.64,17.64,0,0,1,750,133.75q-6.53,5.72-17.19,5.71t-17.19-5.13q-6.53-5.13-6.52-14.58h16.38q.63,7.56,7.74,7.56a7.38,7.38,0,0,0,5.22-1.75,5.82,5.82,0,0,0,1.89-4.46,6,6,0,0,0-1.71-4.41,11.92,11.92,0,0,0-4.46-2.7q-2.75-1-6.12-1.85a61.52,61.52,0,0,1-6.71-2.11,32.73,32.73,0,0,1-6.07-3,12.83,12.83,0,0,1-4.46-5,16.64,16.64,0,0,1-1.71-7.79,17.25,17.25,0,0,1,6.57-14.13q6.57-5.31,16.79-5.31T749,79.39Q755.31,84,755.58,94H738.84a8.44,8.44,0,0,0-2.21-5.27A6.4,6.4,0,0,0,731.91,86.9Z" style="fill: #fff"/>
      </g>
      <g>
        <path d="M47.41,130.83H33.07V125.7H47.41a6.63,6.63,0,0,1,5.1,2,7.82,7.82,0,0,1,0,10,6.64,6.64,0,0,1-5.12,1.95v-5.1a2.7,2.7,0,0,0,1.77-.54,1.69,1.69,0,0,0,.57-1.32,1.73,1.73,0,0,0-.57-1.33A2.55,2.55,0,0,0,47.41,130.83Z" style="fill: #fff"/>
        <path d="M51.28,120a10.36,10.36,0,0,1-7.74,3.13A10.31,10.31,0,0,1,35.82,120a11.17,11.17,0,0,1,0-15.33,10.36,10.36,0,0,1,7.72-3.1,10.39,10.39,0,0,1,7.74,3.12,11.11,11.11,0,0,1,0,15.32ZM48,108.34a6.27,6.27,0,0,0-4.41-1.52,6.27,6.27,0,0,0-4.41,1.52,5.8,5.8,0,0,0,0,8.1A6.27,6.27,0,0,0,43.54,118,6.26,6.26,0,0,0,48,116.44a5.79,5.79,0,0,0,0-8.1Z" style="fill: #fff"/>
        <path d="M45.94,94.68h8.19v5.13H33.07V91.5A8.07,8.07,0,0,1,35,85.8a6,6,0,0,1,4.56-2,6.56,6.56,0,0,1,3.57,1.11,6.06,6.06,0,0,1,2.46,3.63l8.58-5.16v6l-8.19,4.74Zm-9,0H42V91.5A2.35,2.35,0,0,0,39.54,89a2.56,2.56,0,0,0-1.84.69A2.42,2.42,0,0,0,37,91.5Z" style="fill: #fff"/>
        <path d="M33,67.56V62.43H54.13v5.13L40.84,76.14H54.13v5.13H33V76.14L46.3,67.56Z" style="fill: #fff"/>
        <path d="M54.13,46l-3.54,1.17v7.56l3.54,1.17v5.46L33,54.09V47.85l21.12-7.29Zm-7.44,7.44v-5L39.19,51Z" style="fill: #fff"/>
        <path d="M33.07,32.13A11.88,11.88,0,0,1,36,23.85a9.75,9.75,0,0,1,7.59-3.24,9.8,9.8,0,0,1,7.61,3.24,11.85,11.85,0,0,1,2.94,8.28v7.41H33.07Zm17.16,2.28V32.13a6,6,0,0,0-1.8-4.62,6.79,6.79,0,0,0-4.83-1.68,6.79,6.79,0,0,0-4.83,1.68A6,6,0,0,0,37,32.13v2.28Z" style="fill: #fff"/>
        <path d="M54.13,5.49,50.59,6.66v7.56l3.54,1.17v5.46L33,13.53V7.29L54.13,0Zm-7.44,7.44V8l-7.5,2.49Z" style="fill: #fff"/>
      </g>
      <g>
        <path d="M0,137.38V121H5.4V131.8H10a6,6,0,0,1-1.44-4.12,9.94,9.94,0,0,1,.81-4.23,6.3,6.3,0,0,1,2.14-2.63,10,10,0,0,1,5.65-1.76,9,9,0,0,1,6.68,2.48,9.23,9.23,0,0,1,2.47,6.8,10.38,10.38,0,0,1-2.07,6.82A7.65,7.65,0,0,1,18.9,138v-6.08a2.58,2.58,0,0,0,1.71-1.12,4.26,4.26,0,0,0,.67-2.52,2.93,2.93,0,0,0-1.06-2.43,4.41,4.41,0,0,0-2.83-.85,3.93,3.93,0,0,0-2.74.88,3,3,0,0,0-1,2.36,3.49,3.49,0,0,0,.63,2.25,2.6,2.6,0,0,0,1.57,1v5.94Z" style="fill: #fff"/>
        <path d="M21.1,107.86v-2.2h5.22v3.13A8.15,8.15,0,0,1,24.82,114q-1.49,1.85-5.13,1.85H11.34v1.87H6.23v-1.87H1.33v-6.16h4.9v-4h5.11v4h8.35Q21.1,109.73,21.1,107.86Z" style="fill: #fff"/>
        <path d="M23.69,102.06a10.44,10.44,0,0,1-7.38,2.66,10.51,10.51,0,0,1-7.4-2.66A8.49,8.49,0,0,1,6,95.56a6.82,6.82,0,0,1,2.84-5.89H6.23V83.52H26.32v6.16H23.4a7,7,0,0,1,3.17,6A8.42,8.42,0,0,1,23.69,102.06ZM19.94,91a4.89,4.89,0,0,0-3.67-1.33A4.83,4.83,0,0,0,12.62,91a4.28,4.28,0,0,0,0,6.12,4.89,4.89,0,0,0,3.67,1.33A4.83,4.83,0,0,0,20,97.13a4.28,4.28,0,0,0,0-6.12Z" style="fill: #fff"/>
      </g>
      <line x1="16.78" y1="75.96" x2="16.78" y2="1.96" style="fill: none;stroke: #fff;stroke-miterlimit: 10;stroke-width: 8px"/>
    </g>
  </g>
</svg>
