<svg id="white" xmlns="http://www.w3.org/2000/svg" viewBox="0 0 71.18 94.08"><title>thumb01</title><g id="thumb01_copy" data-name="thumb01 copy"><g id="Layer_1_copy" data-name="Layer 1 copy"><path d="M19.49,50.22a3.21,3.21,0,0,0-1.44.3A1.19,1.19,0,0,1,16.33,50a1.37,1.37,0,0,0-1.6-.74c-.73.09-1.15-.3-1.71-.75-1.13-.91-1.27-2-1.45-3.32a10.06,10.06,0,0,0-1-2.46,19.64,19.64,0,0,1,0-3.45l1.26-4.07a14.68,14.68,0,0,0,4.44,1.55c1,.21,2,0,3,.26.29.09.66,0,.63.47-.08,1.07.3,2.1.08,3.21a14.55,14.55,0,0,0-.36,4.58A14.36,14.36,0,0,1,19.49,50.22Z" transform="translate(-10.47 -2.96)" style="fill:#3d3d3d"/><path d="M23.22,94.21A3.46,3.46,0,0,1,23.68,92a1.81,1.81,0,0,0-.16-1.85,4.05,4.05,0,0,1-.62-2.48c.35-3.39-.54-6.69-.69-10.05a20,20,0,0,1,.45-5.88,8.27,8.27,0,0,0,.47-3.9c-.46-2.22-.38-4.56-.81-6.81a4.22,4.22,0,0,0-.15-.47C22,58,21,55.72,20.5,53.27c0-.07,0-.18-.05-.19-1.46-.58-.79-1.86-1-2.86a14.36,14.36,0,0,0,.11-4.92A14.55,14.55,0,0,1,20,40.72c.22-1.11-.16-2.14-.08-3.21,0-.43-.34-.38-.63-.47-1-.3-2,0-3-.26a14.68,14.68,0,0,1-4.44-1.55A5.82,5.82,0,0,1,11.74,31c.72-1,1.3-2,1.92-3a30.82,30.82,0,0,0,3.17-6.32,2.6,2.6,0,0,0,.41-1.23,1.75,1.75,0,0,1,1.6-1.64c1.43-.3,2.95-.27,4.28-1A14.91,14.91,0,0,0,24,19.56c1.09,2.93,1.2,6.1,2.23,9-.7.6-.71,1.58-1.27,2.26-.52,0-1,.09-1.13.76a20,20,0,0,0-.47,3.71c0,.22-.07.59.23.57a10.82,10.82,0,0,0,1.67-.3c.42-.09.25-.5.37-.75a5.23,5.23,0,0,0,1.78-1.51c.1-.13.1-.46.38-.33,1.08.53,1.26-.4,1.54-1a3,3,0,0,0,.26-1.57c0-.29-.14-.73.42-.71l.83,3.44a14.4,14.4,0,0,1-.2,2.69c-.34,2.77.3,5.6-.59,8.33-.16.49.16.47.5.42,1.13-.16,2.29-.21,3.4-.47,3.21-.75,3-.19,2.84-3.89-.15-2.93-.39-5.85-.33-8.79a78.14,78.14,0,0,0-.35-11.91c-.1-.74-.48-1.47-.2-2.24,2,1.19,3.83,2.64,6,3.44a1.3,1.3,0,0,1,.84,1.35c.16,3.24.91,6.4,1.33,9.61.48,3.63,1.91,7.1,2,10.8a.5.5,0,0,0,0,.63l.06.39c.58,2.69.27,5.44.62,8.24a4.84,4.84,0,0,0-3.07-.33,2.1,2.1,0,0,0-.67.23c-.89.53-1,.52-1.12-.57-.19-1.4-.32-2.82-.43-4.23a12.9,12.9,0,0,0-.7-3.15c-.46-2.83-1.4-5.58-1.4-8.62-.18.2-.26.27-.3.35-.1.25-.17.51-.25.77a10,10,0,0,0,.61,7.53c-.34.3-.12.62,0,.93a52.93,52.93,0,0,1,1.75,8.68c.25,2,.72,4,1.14,6,.08,1.41.08,2.84.28,4.23a43.21,43.21,0,0,1,0,4.59,5.88,5.88,0,0,1-2.08,4.25,19.75,19.75,0,0,0-2.79,3.19,27.65,27.65,0,0,1-2,2.64c-1.34,1.59-2.12,3.44-.92,5.44s1,4,1.19,6.07c.08.94-.45,1.26-1.29,1.26a2.49,2.49,0,0,1-1.62-.73,5.48,5.48,0,0,1-2-3.76c-.23-2.73-1.6-5.05-2.4-7.6,0,.07-.13.14-.13.22a34.75,34.75,0,0,0-.17,5.55c.22,1.9-.07,3.84.31,5.75a1.13,1.13,0,0,1-.09.69A4.11,4.11,0,0,0,28.61,94a2.69,2.69,0,0,0,.27,1.55c.46.94.13,1.44-.91,1.4a19.06,19.06,0,0,1-3.53-.06c-1.18-.27-1.4-.54-1.16-1.73A1.33,1.33,0,0,0,23.22,94.21Zm9-34.23-.76-3.36A9.82,9.82,0,0,0,30.61,60c-.19,2.69-.44,5.38-.56,8.07a15.51,15.51,0,0,1-.72,3.86,17.55,17.55,0,0,0-.54,5.56c1.64-1,2-2.87,3.13-4.2.3-.36.82-.51.95-1a8.32,8.32,0,0,1,1.78-3A2,2,0,0,0,35,67.13C34.06,64.75,33.51,62.22,32.23,60Z" transform="translate(-10.47 -2.96)" style="fill:#fff471"/><path d="M28.11,12.43a12.21,12.21,0,0,0-.42-1.65,9.35,9.35,0,0,1-.29-4.37A2.41,2.41,0,0,1,28,5.08c.81-.29.79-1.37,1.59-1.67a9.14,9.14,0,0,1,6,.13,6.49,6.49,0,0,1,1.16.61,1.09,1.09,0,0,1,.32,1.79A.91.91,0,0,0,37,7.11c.81,1.52.53,3.15.44,4.75C37.38,12.92,37,14,36.92,15a1.56,1.56,0,0,1-1.22,1.54A9,9,0,0,1,32.88,19,4.91,4.91,0,0,1,31,18.81c.23-.26.18-.45-.1-.65a5.76,5.76,0,0,1-1.09-.88c-.68-.8-1.48-1.61-.81-2.82A2.11,2.11,0,0,0,28.11,12.43Z" transform="translate(-10.47 -2.96)" style="fill:#fff471"/><path d="M12.19,27.34c.53-1.19,1-2.43,1.61-3.56a5,5,0,0,1,3-2.13" transform="translate(-10.47 -2.96)" style="fill:#3d3d3d"/><path d="M43.85,52.85c1.45-.19,2.3.31,2.7,1.33.6,1.53,0,2.91-.32,4.34" transform="translate(-10.47 -2.96)" style="fill:#8d8a8a"/><path d="M33.28,22.24a1.49,1.49,0,0,1,.59-2.15c.4-.23.54-.49.37-.9s-.47-.2-.76-.14a2.21,2.21,0,0,1-.6,0,9,9,0,0,0,2.81-2.44l.22.75c-.29.78.1,1.5.2,2.24a78.14,78.14,0,0,1,.35,11.91c-.06,2.94.18,5.86.33,8.79.19,3.7.37,3.15-2.84,3.89-1.11.26-2.26.31-3.4.47-.34,0-.66.07-.5-.42.89-2.73.25-5.57.59-8.33.3.3.21.69.22,1.05.06,1.18.16,2.36.13,3.54s.84,1.54,1.42,2.2c.12.14.29.1.46,0a2.48,2.48,0,0,0,1.35-2.55,27.68,27.68,0,0,1-.42-6.85A48.94,48.94,0,0,0,34,28.12" transform="translate(-10.47 -2.96)" style="fill:#fff471"/><path d="M31.06,32.24c0,.32.09.68-.22.95L30,29.75a4.19,4.19,0,0,1,.2-.54c.31-.6.11-.78-.5-.66-.23-1.09-.45-2.18-.71-3.26-.56-2.4-.61-4.9-1.46-7.23-.27-.74-.92-1.42-.07-2.19,0,0-.08-.17-.13-.26a.85.85,0,0,0,.67-.85l1-.3c-.67,1.21.12,2,.81,2.82a5.76,5.76,0,0,0,1.09.88c.28.2.33.39.1.65-.44.3-.71.51,0,.86,1.2.58,1.35,1.13.81,2.33a4.58,4.58,0,0,0-.35,1.87" transform="translate(-10.47 -2.96)" style="fill:#cececd"/><path d="M23.13,17.79c.49-.61,1.15-.46,1.79-.4,1.09.13,1.56.85,1.91,1.81a23.48,23.48,0,0,1,1.07,3.26c.39,2,1.11,3.88,1.06,5.93a9.45,9.45,0,0,0-2.73.21c-1-2.94-1.14-6.11-2.23-9A14.91,14.91,0,0,1,23.13,17.79Z" transform="translate(-10.47 -2.96)" style="fill:#3d3d3d"/><path d="M27.54,18.06c.85,2.33.91,4.83,1.46,7.23" transform="translate(-10.47 -2.96)" style="fill:#fff471"/><path d="M67.89,33.82a2.67,2.67,0,0,0,2.64-1.43c.13-.25.23-.58.63-.54v.81c-.24.14-.2.38-.2.6a.8.8,0,0,0-.28.93c.36-.27.28-.61.3-.91.23-.15.19-.38.2-.6.39.58.14,1.22.19,1.84A4.91,4.91,0,0,0,71.75,37c-.24-1.75.2-3.55-.44-5.26a3,3,0,0,1,.64-1.09,1.86,1.86,0,0,0,.86-1.47c.09-.25.54-.5.2-.75a2.06,2.06,0,0,0-1.65-.18h-.8a3.8,3.8,0,0,0-.33-2.06c-.2.77.16,1.42.17,2.1-.12.35-.45.37-.73.44l-.21-.21c.08-.42.24-.91-.51-.55-.36.17-.71.35-1.06.55-1,.57-1.29,1.85-2.16,2.44-1.83,1.25-3.53,2.75-5.8,3.28-1.43.33-1.83.87-1.82,2.09,0,1.9.43,2.56,1.83,2.92-.43.22-.86.47-1.3.67-1.21.52-1.86.31-2.47-.83a3.12,3.12,0,0,1-.41-1.83A71.51,71.51,0,0,1,57.9,26c.19-.67.48-1.31.74-2a4.68,4.68,0,0,1,3.45-3c1.2-.29,1.35-.61,1.28-1.93a.55.55,0,0,1,.07-.28c1.07-1.94,1.25-4.13,1.66-6.24.69-3.59,3.27-4.87,6.21-5.28A3.84,3.84,0,0,1,74.92,10c.18.85.32,1.71.54,2.55a12.66,12.66,0,0,1-.21,7.6c-.37,1-.19,1.7,1,1.95,2.45.52,3.13,2.27,3.25,4.5.08,1.47.17,2.94.13,4.41a26.54,26.54,0,0,0,1.07,9.2,3.53,3.53,0,0,1,.21,2.25,3.77,3.77,0,0,1-2.16.66c-1-.07-1,.43-.86,1.14a45.71,45.71,0,0,1,.78,4.72,18,18,0,0,1,0,4.37l-.11.6-17.22,0a.17.17,0,0,0-.17,0c0-2.75-.23-5.48-.4-8.22-.19-1.64.52-3.13.79-4.7a5,5,0,0,0,.19-2.74l3.74-3.56a3.22,3.22,0,0,1,2.43-.9" transform="translate(-10.47 -2.96)" style="fill:#fff471"/><path d="M72.27,31.53s-1.11.09-1.42.69a18.14,18.14,0,0,0-.56,4.59c.06.78,1.83,4.34,2.54,1.38A14.15,14.15,0,0,0,72.27,31.53Z" transform="translate(-10.47 -2.96)" style="fill:#060608"/><path d="M70.4,28.31c.16,0,.63-.13.7-.56S71.4,26,70.64,26s-1,.27-1,.78A4,4,0,0,0,70.4,28.31Z" transform="translate(-10.47 -2.96)" style="fill:#060608"/><path d="M72,37.69l.2.2.2.2.2.2.09.08-.08-.09-.2-.2-.2-.2-.2-.2-.09-.08Z" transform="translate(-10.47 -2.96)" style="fill:#060608"/><path d="M73,38.89l.09.08-.08-.1-.09-.08Z" transform="translate(-10.47 -2.96)" style="fill:#060608"/><path d="M72.56,41.89l-.08.09.09-.08.08-.09Z" transform="translate(-10.47 -2.96)" style="fill:#060608"/><path d="M68.15,20l.08.26.07,0L68.16,20l-.08-.27-.07.05Z" transform="translate(-10.47 -2.96)" style="fill:#060608"/><path d="M67.75,19l.07.26.08,0L67.75,19a.42.42,0,0,0-.2-.41l-.08-.26-.07.05.14.22A.43.43,0,0,0,67.75,19Z" transform="translate(-10.47 -2.96)" style="fill:#060608"/><path d="M73,41.08l-.14.23.07.05L73,41.1l.14-.22-.07-.06Z" transform="translate(-10.47 -2.96)" style="fill:#060608"/><path d="M71.76,43.09a.41.41,0,0,0-.2.4c-.26,0-.55-.09-.93.2a3.44,3.44,0,0,0,.6,0,1.27,1.27,0,0,0,.33-.18.42.42,0,0,0,.2-.4l.08-.09Z" transform="translate(-10.47 -2.96)" style="fill:#060608"/><path d="M71.77,27.25a.31.31,0,0,0,.16-.39s-.05,0-.08-.05l-.08.44-.15.22.08.05Z" transform="translate(-10.47 -2.96)" style="fill:#060608"/><path d="M67,16.79l.13,0c0-.46,0-.93,0-1.39,0-.23-.15-.4-.39-.32s-.14.25-.09.42C66.78,15.9,66.89,16.35,67,16.79Z" transform="translate(-10.47 -2.96)" style="fill:#060608"/><path d="M73.2,40.43a1,1,0,0,0,.08-1C73.09,39.71,73.18,40,73.2,40.43Z" transform="translate(-10.47 -2.96)" style="fill:#060608"/><path d="M67.21,17.35a1.87,1.87,0,0,0-.05.32c0,.06,0,.11.08.17s.11-.21.1-.33S67.27,17.43,67.21,17.35Z" transform="translate(-10.47 -2.96)" style="fill:#060608"/><path d="M69.35,23.14,69.27,23s-.08.1-.09.15,0,.1.07.16Z" transform="translate(-10.47 -2.96)" style="fill:#060608"/><path d="M70.07,25.38c0,.05-.09.1-.09.15s0,.11.08.16.09-.1.09-.15S70.1,25.44,70.07,25.38Z" transform="translate(-10.47 -2.96)" style="fill:#060608"/><path d="M69.9,24.89v-.08l-.11,0s0,.05,0,.07S69.88,24.9,69.9,24.89Z" transform="translate(-10.47 -2.96)" style="fill:#060608"/><path d="M68.42,20.77s0,.05,0,.07.07.09.1,0a.09.09,0,0,0,0-.08S68.45,20.77,68.42,20.77Z" transform="translate(-10.47 -2.96)" style="fill:#060608"/><path d="M68.71,21.41l0-.06-.06.05.08.08Z" transform="translate(-10.47 -2.96)" style="fill:#060608"/><path d="M69.1,22.48V22.4l-.11,0s0,.05,0,.07S69.08,22.49,69.1,22.48Z" transform="translate(-10.47 -2.96)" style="fill:#060608"/><path d="M78.54,53.9l.11-.6a4.38,4.38,0,0,0,0-4.37,45.71,45.71,0,0,0-.78-4.72c-.15-.71-.14-1.2.86-1.14a3.77,3.77,0,0,0,2.16-.66l.33,4.89a38.29,38.29,0,0,0,.32,4.23c.05.8-.4,1.61.08,2.39,0,1.54.22,3.07-.56,4.54a4.51,4.51,0,0,1-1.91,1.79c-.61.35-.84,0-.81-.71s.4-1.43-.3-2A20.43,20.43,0,0,0,78.54,53.9Zm1.08,2.78a2.77,2.77,0,0,0-.3,1.8C80,57.91,79.77,57.29,79.61,56.69Z" transform="translate(-10.47 -2.96)" style="fill:#8d8a8a"/><path d="M76.6,64.17c-.89,3.37-1.37,6.83-2.07,10.23-1,4.69-1.58,9.47-3.27,14-.27.73,0,1.55-.41,2.23A4.15,4.15,0,0,0,73,94.21c.57.3,1.29.41,1.46,1.22.14.66,0,1.09-.72,1.11-1.75,0-3.55.36-5.13-.8a2.82,2.82,0,0,0-1.2-.49c-1-.15-1.16-.76-1-1.59s.38-1.49.55-2.23c.07-.31.23-.67-.25-.83a3,3,0,0,1,0-.69,10.32,10.32,0,0,0,.58-2.32c0-2.84.69-5.61.8-8.44.07-1.84.84-3.63.81-5.52,0-.34.34-.68,0-1.15a3.36,3.36,0,0,1-1.09,1.21,16.54,16.54,0,0,0-4.25,4.88,12.35,12.35,0,0,0-2,7.64,11.47,11.47,0,0,1,0,1.8c0,.82-.19,1.68-1.08,2a2.33,2.33,0,0,1-2.56-.66c-1.32-1.39-1-3-.67-4.63a18,18,0,0,0,.44-2.56c.1-1.57,0-3.15,1.47-4.33,1-.81,1-2.22,1.33-3.39a6,6,0,0,1,2-3.47,2.88,2.88,0,0,0,1.14-2.62c0-1.42-.48-2.76-.59-4.16Z" transform="translate(-10.47 -2.96)" style="fill:#fff471"/></g><g id="Layer_2_copy" data-name="Layer 2 copy"><path d="M61.14,53.93c0,2.76,1.93,10.25,1.93,10.25H76.6s2.1-8.36,1.93-10.27-17.39-.53-17.39-.53" transform="translate(-10.47 -2.96)" style="fill:#fff471"/></g></g></svg>