<svg id="white" xmlns="http://www.w3.org/2000/svg" viewBox="0 0 56.25 58.27"><title>thumb02</title><g id="thumb02_copy" data-name="thumb02 copy"><path d="M48.38,44.36c7.38,0,14.76,0,22.14,0a10,10,0,1,1-3.09,19.45,1.54,1.54,0,0,0-1.93.52c-6.65,7.18-14.83,9.77-24.22,7.11s-15-9.14-16.78-18.71c-.44-2.34-.13-4.81-.17-7.23,0-.94.47-1.19,1.37-1.19C33.25,44.37,40.81,44.36,48.38,44.36Zm-.67,5.14H38.27c-3,0-5.93,0-8.9,0-.76,0-1.07.26-1,1s.16,1.66.29,2.48c.25,1.51.28,1.52,1.79,1.52h30.7c1.41,0,2.82,0,4.23,0a1,1,0,0,0,1.18-1c.12-.89.28-1.79.37-2.68.12-1.28,0-1.36-1.25-1.36Zm23.67-.55a24.11,24.11,0,0,1-2.56,10.54,4.87,4.87,0,0,0,5.24-.79,5.61,5.61,0,0,0,1.82-6A5.22,5.22,0,0,0,71.38,48.95Z" transform="translate(-24.25 -20.87)" style="fill:#fff471"/><path d="M50.89,79.13H26.81c-1.43,0-1.43,0-1.44-1.43,0-2.81,0-2.81,2.76-2.81H74.76c1.54,0,1.54,0,1.54,1.52,0,2.71,0,2.71-2.65,2.71Z" transform="translate(-24.25 -20.87)" style="fill:#fff471"/><path d="M52.63,41.6a17.06,17.06,0,0,1-1.29-1.79c-.1-.17.13-.65.34-.85,3-2.83,3-3.58.47-6.76A23.85,23.85,0,0,1,50.51,30a5.31,5.31,0,0,1,.57-7,12,12,0,0,1,1.34-1.26c1.5-1.24,1.52-1.21,2.45.5.34.62.26,1-.33,1.33a2.12,2.12,0,0,0-.26.19c-2.47,1.91-2.64,3.25-.74,5.73.75,1,1.57,1.9,2.23,2.93A5.17,5.17,0,0,1,55.4,39a23.41,23.41,0,0,1-2.06,2.08A6.37,6.37,0,0,1,52.63,41.6Z" transform="translate(-24.25 -20.87)" style="fill:#fff471"/><path d="M39.76,39.39a27.49,27.49,0,0,0,2.12-2.07A2.41,2.41,0,0,0,42.05,34c-.73-1.07-1.6-2-2.37-3.09-2.78-3.76-1.57-8,2.95-10a15.23,15.23,0,0,1,1,1.84c.08.21-.15.66-.37.84-3.07,2.56-3.17,3.59-.61,6.67a21.93,21.93,0,0,1,1.76,2.33,5.2,5.2,0,0,1-.27,6.36,10.73,10.73,0,0,1-1.07,1.22C41.29,41.9,41,41.83,39.76,39.39Z" transform="translate(-24.25 -20.87)" style="fill:#fff471"/></g></svg>