<svg id="white" xmlns="http://www.w3.org/2000/svg" viewBox="0 0 71.15 92.58"><title>thumb04</title><g id="thumb04_copy" data-name="thumb04 copy"><path d="M72.86,87.51a12,12,0,0,1-1.46,2A19.19,19.19,0,0,1,69.15,91c-.45.3-1.26.8-1.21,1a3.71,3.71,0,0,0,1.15,1.8c.38.29,1.14.05,1.68.21s.93.46,1,.78a1.45,1.45,0,0,1-.6,1.13,3.82,3.82,0,0,1-1.61.57c-2.39.33-4.8.59-7.19.91a1.28,1.28,0,0,1-1.64-1.2c-.19-.91-.56-1.79-.83-2.69-.07-.24-.21-.61-.1-.74,1.15-1.37,0-2.4-.41-3.59a19.87,19.87,0,0,1-1.56-5.56c-.25-7-2-13.58-4.16-20.13C53.3,62.29,53,61.13,52.59,60c0,0-.09,0-.41-.15-.23,1.17-.53,2.31-.67,3.46-1,8.56-2.06,17.11-3,25.68a7.22,7.22,0,0,1-3.06,5.23,11.82,11.82,0,0,0-1.63,2.27c-.3.39-.76,1-1.08,1a29.62,29.62,0,0,1-4.67-.93c-.22-.06-.26-1.05-.22-1.6.06-.81.53-1.66.37-2.39-.35-1.58-.11-2.79,1.53-3.66-3-2.38-1-5.21-.53-7.56A127.06,127.06,0,0,0,41.52,56.1a80.39,80.39,0,0,1,1.65-17c.25-1.1-.31-1.82-.82-2.78a24,24,0,0,1-2.45-7c-.4-2.18,0-4.49-.09-6.74a2.53,2.53,0,0,1,1.93-2.84c1.31-.38,2.59-.86,3.91-1.19a5.33,5.33,0,0,0,3-1.8c1.29-1.48,3.29-1.33,5.14-1.17a4.69,4.69,0,0,0,1.28.1c-1.31-1.14-2.91-.86-4.42-.82-2,0-3.25-1-3.22-3,0-.94.06-1.89.15-2.83A4.37,4.37,0,0,1,51.7,4.89a4.71,4.71,0,0,1,4.82,3.5,12,12,0,0,1-.14,7,2.26,2.26,0,0,0,1.85,3.23c1.12.28,2.27.44,3.38.75s2.06.71,3.46,1.2c.14-1.66.27-3.18.41-4.71a11.14,11.14,0,0,1,.3-2.32c.75-2.35,1.58-3.06,3.38-3.11,2.42-.06,4.36,1,5,3,.77,2.26,1.9,4.47,1.34,7a1.56,1.56,0,0,0,.62,1.28c2.83,1.75,3.54,4.41,3.32,7.48-.08,1.09-.2,2.19-.27,3A26.24,26.24,0,0,1,82,34.13a1.38,1.38,0,0,1-.17,2.46c-.13.09-.26.18-.39.26-3.16,1.78-3.25,1.42-2.19,5.32a28,28,0,0,1,.54,8c0,2.62,0,5.25.07,7.87,0,2.31.07,2.31-2.15,2.36-3,.08-4.42,1.71-4,4.79a2,2,0,0,0,.73,1.3c2.77,1.84,4.42,4.58,6.13,7.3.93,1.48,1.64,3.13,3.89,3.2A1.94,1.94,0,0,1,86.22,79a12.22,12.22,0,0,0,.53,2.42l-1.2-.22c0,.94,0,1.81,0,2.67.08,1.55-2.42,4.23-3.92,4s-1-1.72-.75-2.32c1.47-3,.12-5.45-1.34-7.75-1-1.5-2.55-2.61-3.9-3.86-.76-.7-1.2-.42-1.33.55-.24,1.77-.52,3.53-.74,5.3A4.69,4.69,0,0,0,74.63,84,3.43,3.43,0,0,1,75,86.51a36.52,36.52,0,0,1-1.06,4.1c-.11-.89-.14-1.32-.22-1.75s-.19-.85-.29-1.28Zm-5.38,1.1c1.23-1.75,2.35-3.37,2.36-5.36,0-4.08-.22-8.16-.32-12.23A3.89,3.89,0,0,0,68.27,68a4.07,4.07,0,0,1-.92-2.39,31.33,31.33,0,0,1,0-3.76l-1.83-.11c0-.49,0-.89,0-1.3,0-1.47,0-2.94-.1-4.41,0-.34-.51-.64-.78-1a4.61,4.61,0,0,0-.67.93,2.45,2.45,0,0,0,0,.94c.09,3.67.16,7.35.3,11q.17,4.69.49,9.38a60.58,60.58,0,0,1,.53,6.24C65.14,85.6,66.22,86.92,67.48,88.61ZM63.73,46.94c2.94-4.24,1.05-8.65.92-13.16-1.67.55-2.57,1.37-2.29,3,.4,2.32.86,4.63,1.21,7A30.12,30.12,0,0,1,63.73,46.94Zm2.15-18.63c1.3-1.57,2.37-2.82,3.35-4.13.19-.26,0-.78,0-1-.85.37-1.6,1-2.12.85s-1-1-1.47-1.61l-.38.09Z" transform="translate(-15.6 -4.87)" style="fill:#fff471"/><path d="M21.44,94.68l-.79-1.34c-.14-.24-.39-.49-.38-.73a4.33,4.33,0,0,0-.39-1.74,7.37,7.37,0,0,1-.19-1.07c0-.17,0-.4-.15-.5-.38-.34-.2-.69-.08-1,.2-.59.39-1.18.55-1.78,0-.09-.11-.21-.14-.32a4.62,4.62,0,0,1-.33-1.49c.15-1.47.44-2.92.65-4.38a18.65,18.65,0,0,0,.33-3.19,10.54,10.54,0,0,0-.65-2.19,3.25,3.25,0,0,1-.08-1.05A5.51,5.51,0,0,1,20,73c.3-1.24.6-2.47.88-3.71.05-.23.14-.55,0-.69-.28-.38-.14-.72,0-1.09a1,1,0,0,0,0-.53c-.67-2-.1-3.89.25-5.82a9.3,9.3,0,0,0,.2-2.32,41,41,0,0,0-.54-4.08A13.5,13.5,0,0,0,20.1,52a8.87,8.87,0,0,1-.81-4.31.7.7,0,0,0,0-.36,4.33,4.33,0,0,1-.14-2.86,10.79,10.79,0,0,0-.61-5.25c-.71-2.3-2-4.38-2.56-6.74a7.71,7.71,0,0,1-.26-3.36c.37-1.85.75-3.69,1.14-5.53a1.13,1.13,0,0,1,.15-.39c.53-.79,1-1.58,1.6-2.35.92-1.26,1.52-3.28-.18-4.61A4.75,4.75,0,0,1,17,14.13a5.16,5.16,0,0,1,.86-4.76,2.48,2.48,0,0,0,.2-.75,1.19,1.19,0,0,1,0-.12l.12.18a8.62,8.62,0,0,1,1.1-1c.63-.42,1.33-.74,2-1.11h2.8L27,8c-.65,1.43-.3,2.92-.09,4.4a14.22,14.22,0,0,0,.55,2.11c.15.48.15.79-.49.77-.15,0-.43.18-.43.28,0,.42-.1,1,.13,1.23a2.19,2.19,0,0,1,.87,1.56,15.82,15.82,0,0,0,1,2.91c.18.54.28,1.1.42,1.65.6,2.35,1.18,4.71,1.79,7.06.23.88-.09,1.91.81,2.64.25.2.24.75.33,1.14a2.15,2.15,0,0,1,.08.66,23.12,23.12,0,0,1-.31,2.68c-.14.68-.78,1-1.4,1.13s-.87.44-.61,1.19a13.58,13.58,0,0,1,.73,2.69,37.92,37.92,0,0,1,.18,4.05,3.11,3.11,0,0,1-.33.94A3.31,3.31,0,0,0,30,48c-.05,1,0,2.07-.09,3.1-.1,1.68-.17,3.36-.37,5a43.26,43.26,0,0,1-.84,4.6c-.31,1.32-.78,2.6-1.16,3.9a5.89,5.89,0,0,1-.32,1.23,5.37,5.37,0,0,0-.36,3.72,3.85,3.85,0,0,1-.18,2A8.41,8.41,0,0,0,26,75.22c0,.86-.12,1.73-.14,2.6s0,1.86,0,2.78c.1,1.43.23,2.86.43,4.28A20.12,20.12,0,0,0,27,87.13a5.48,5.48,0,0,1,.21,1.13c0,.6-.55,1.27.21,1.8.06,0,0,.27,0,.4A1.14,1.14,0,0,0,28.41,92c.54.09,1.06.26,1.59.39,1.14.27,2.27.58,3.42.8.9.17,1,.31.83,1.17a2,2,0,0,1-.15.33Zm6-67.76a5.07,5.07,0,0,0-.32-2.06,10.92,10.92,0,0,0-1.82-2.22A5.18,5.18,0,0,0,27.42,26.92Zm-2.65-6a3.23,3.23,0,0,1-.26-.7c0-.22,0-.55.1-.65.55-.4.28-.68-.06-1C23.89,19.63,23.92,20.25,24.77,20.93Z" transform="translate(-15.6 -4.87)" style="fill:#fff471"/></g></svg>