<svg id="white" xmlns="http://www.w3.org/2000/svg" viewBox="0 0 65.57 46.99"><title>thumb03</title><g id="thumb03_copy" data-name="thumb03 copy"><path d="M51,72.36A21.79,21.79,0,1,1,72.77,50.58,21.73,21.73,0,0,1,51,72.36ZM51,31.83a18.74,18.74,0,0,0-.16,37.49A18.74,18.74,0,1,0,51,31.83Z" transform="translate(-17.68 -28.58)" style="fill:#fff471"/><path d="M21,40.44c1.13.15,1.14.14,1.14-1q0-4.23,0-8.47a8.53,8.53,0,0,1,0-.91c.11-1,.69-1.56,1.57-1.53a1.58,1.58,0,0,1,1.49,1.64c0,1.4,0,2.79,0,4.19,0,2,0,4,0,6,1.24.28,1.32.19,1.26-.89q-.23-4.54-.4-9.09a1.56,1.56,0,0,1,1.47-1.81c.93,0,1.5.5,1.56,1.63.2,4,.4,8,.51,12A5.35,5.35,0,0,1,27,46.92a1.32,1.32,0,0,0-.68,1.25q.13,11.56.21,23.12c0,.49,0,1,0,1.46a2.78,2.78,0,0,1-3,2.77,2.73,2.73,0,0,1-2.74-2.89q.11-12.11.27-24.22a1.62,1.62,0,0,0-.81-1.55,5.73,5.73,0,0,1-2.62-5.2c.15-3.85.36-7.7.55-11.55a1.53,1.53,0,0,1,1.56-1.55,1.48,1.48,0,0,1,1.47,1.72c-.06,2-.19,4-.24,6C21,37.66,21,39,21,40.44Zm.35,3.17a2.76,2.76,0,0,0,4.65,0Z" transform="translate(-17.68 -28.58)" style="fill:#fff471"/><path d="M74.57,52.27q0-9.83,0-19.66a3.62,3.62,0,0,1,2.71-3.83,3.55,3.55,0,0,1,4.46,2.51c1.08,5.27,1.95,10.57,1.26,16-.31,2.43-.77,4.83-1.14,7.25a7.72,7.72,0,0,0-.07,1.18q0,8.24,0,16.47a3.09,3.09,0,0,1-2.46,3.27c-1.72.28-3.41.21-4.29-1.51a4.8,4.8,0,0,1-.45-2.09C74.56,65.32,74.57,58.79,74.57,52.27Zm3.13,1.06c.9.19,1.41.11,1.51-.85.23-2.25.71-4.49.78-6.75a77.23,77.23,0,0,0-.3-8.24,46.26,46.26,0,0,0-.88-5.18c0-.21-.39-.36-.6-.54a3.81,3.81,0,0,0-.49.62,1.3,1.3,0,0,0,0,.54q0,9.73,0,19.46Z" transform="translate(-17.68 -28.58)" style="fill:#fff471"/><path d="M35.7,50.52A15.28,15.28,0,1,1,51.33,65.86,15.23,15.23,0,0,1,35.7,50.52Z" transform="translate(-17.68 -28.58)" style="fill:#fff471"/></g></svg>