<svg id="jornada_marketing_redes_sociales" data-name="jornada marketing redes sociales" xmlns="http://www.w3.org/2000/svg" viewBox="0 0 787.57 144.15"><title>title</title><g id="original"><path d="M244.38,190.69v63.18H229V218.23l-14.67,35.64H202.89l-14.67-35.64v35.64H172.83V190.69h17.64l18.18,43.56,18.09-43.56Z" transform="translate(-73.22 -185.54)" style="fill:#fff"/><path d="M293.52,253.87,290,243.25H267.33l-3.51,10.62H247.44l22-63.36h18.72L310,253.87ZM271.2,231.55h14.94L278.67,209Z" transform="translate(-73.22 -185.54)" style="fill:#fff"/><path d="M328.44,229.3v24.57H313.05V190.69H338q11,0,17.1,5.67A18,18,0,0,1,361.2,210a19.68,19.68,0,0,1-3.33,10.71Q354.54,226,347,228.13l15.48,25.74h-18L330.24,229.3Zm0-26.91V217.6H338a7.05,7.05,0,0,0,7.56-7.52,7.67,7.67,0,0,0-2.07-5.53,7.25,7.25,0,0,0-5.49-2.16Z" transform="translate(-73.22 -185.54)" style="fill:#fff"/><path d="M384.06,253.87H368.67V190.69h15.39v27.72l20.88-27.72H425.1l-26,31.59,26,31.59H405.3L384.06,226Z" transform="translate(-73.22 -185.54)" style="fill:#ff0"/><path d="M467.22,190.51v11.7H444.36V215.8h20.16v11.7H444.36v14.67h22.86v11.7H429V190.51Z" transform="translate(-73.22 -185.54)" style="fill:#fff"/><path d="M471.63,202.39v-11.7h49.86v11.7H504.21v51.48H488.82V202.39Z" transform="translate(-73.22 -185.54)" style="fill:#fff"/><path d="M526.17,253.87V190.69h15.39v63.18Z" transform="translate(-73.22 -185.54)" style="fill:#fff"/><path d="M591.69,190.51h15.39v63.36H591.69L565.95,214v39.87H550.56V190.51h15.39l25.74,39.87Z" transform="translate(-73.22 -185.54)" style="fill:#fff"/><path d="M621.79,245.27q-9.41-9.13-9.41-23.17t9.41-23.17a31.76,31.76,0,0,1,23-9.14,32.46,32.46,0,0,1,18.72,5.58,29.1,29.1,0,0,1,11.43,15.48H656.58a12.09,12.09,0,0,0-11.52-6.93q-7.92,0-12.47,5T628,222.1q0,8.28,4.54,13.23t12.2,5a14,14,0,0,0,9-2.75,13.23,13.23,0,0,0,4.63-7.33H640.56V218.5h34.38v11.7q-1.71,8.64-9.45,16.11a28.47,28.47,0,0,1-9.13,5.85,30,30,0,0,1-11.57,2.25A31.75,31.75,0,0,1,621.79,245.27Z" transform="translate(-73.22 -185.54)" style="fill:#fff"/><path d="M741.08,190.51v11.7H718.22V215.8h20.16v11.7H718.22v14.67h22.86v11.7H702.83V190.51Z" transform="translate(-73.22 -185.54)" style="fill:#fff"/><path d="M790.94,190.51h15.39v63.36H790.94L765.2,214v39.87H749.81V190.51H765.2l25.74,39.87Z" transform="translate(-73.22 -185.54)" style="fill:#fff"/><path d="M188.22,303.3v24.57H172.83V264.69h24.93q11,0,17.1,5.67A18,18,0,0,1,221,284a19.68,19.68,0,0,1-3.33,10.71q-3.33,5.22-10.89,7.38l15.48,25.74h-18L190,303.3Zm0-26.91V291.6h9.54a7.05,7.05,0,0,0,7.56-7.52,7.67,7.67,0,0,0-2.07-5.53,7.25,7.25,0,0,0-5.49-2.16Z" transform="translate(-73.22 -185.54)" style="fill:#fff"/><path d="M266.7,264.51v11.7H243.84V289.8H264v11.7H243.84v14.67H266.7v11.7H228.45V264.51Z" transform="translate(-73.22 -185.54)" style="fill:#fff"/><path d="M297.66,264.69q15.12,0,24.84,8.78t9.72,22.77q0,14-9.72,22.81t-24.84,8.82H275.43V264.69Zm-6.84,51.48h6.84q8.82,0,13.86-5.4t5-14.49q0-9.09-5-14.49t-13.86-5.4h-6.84Z" transform="translate(-73.22 -185.54)" style="fill:#fff"/><path d="M375.69,264.51v11.7H352.83V289.8H373v11.7H352.83v14.67h22.86v11.7H337.44V264.51Z" transform="translate(-73.22 -185.54)" style="fill:#fff"/><path d="M405.84,275.94a7.15,7.15,0,0,0-4.73,1.53,5.4,5.4,0,0,0-1.84,4.41,6.35,6.35,0,0,0,1.71,4.64,11.16,11.16,0,0,0,4.46,2.7q2.74.94,6.12,1.8a69.18,69.18,0,0,1,6.71,2.07,29.48,29.48,0,0,1,6.08,3,13.23,13.23,0,0,1,4.46,5.08,16.87,16.87,0,0,1,1.71,7.88A17.64,17.64,0,0,1,424,322.78q-6.53,5.72-17.19,5.71t-17.19-5.13q-6.53-5.13-6.52-14.58h16.38q.63,7.56,7.74,7.56a7.38,7.38,0,0,0,5.22-1.75,5.82,5.82,0,0,0,1.89-4.46,6,6,0,0,0-1.71-4.41,11.92,11.92,0,0,0-4.46-2.7q-2.75-1-6.12-1.85a61.46,61.46,0,0,1-6.71-2.11,32.73,32.73,0,0,1-6.08-3,12.84,12.84,0,0,1-4.46-5,16.65,16.65,0,0,1-1.71-7.79,17.25,17.25,0,0,1,6.57-14.13q6.57-5.31,16.78-5.31t16.52,4.64q6.3,4.64,6.57,14.63H412.77a8.45,8.45,0,0,0-2.21-5.27A6.4,6.4,0,0,0,405.84,275.94Z" transform="translate(-73.22 -185.54)" style="fill:#fff"/><path d="M482.07,275.94a7.15,7.15,0,0,0-4.72,1.53,5.4,5.4,0,0,0-1.84,4.41,6.35,6.35,0,0,0,1.71,4.64,11.16,11.16,0,0,0,4.46,2.7q2.75.94,6.12,1.8a69.14,69.14,0,0,1,6.71,2.07,29.5,29.5,0,0,1,6.08,3,13.24,13.24,0,0,1,4.46,5.08,16.88,16.88,0,0,1,1.71,7.88,17.64,17.64,0,0,1-6.52,13.73q-6.53,5.72-17.19,5.71t-17.19-5.13q-6.53-5.13-6.53-14.58h16.38q.63,7.56,7.74,7.56a7.37,7.37,0,0,0,5.22-1.75,5.82,5.82,0,0,0,1.89-4.46,6,6,0,0,0-1.71-4.41,11.92,11.92,0,0,0-4.46-2.7q-2.75-1-6.12-1.85a61.46,61.46,0,0,1-6.71-2.11,32.71,32.71,0,0,1-6.08-3,12.84,12.84,0,0,1-4.46-5,16.65,16.65,0,0,1-1.71-7.79,17.25,17.25,0,0,1,6.57-14.13q6.57-5.31,16.79-5.31t16.51,4.64q6.3,4.64,6.57,14.63H489a8.45,8.45,0,0,0-2.21-5.27A6.4,6.4,0,0,0,482.07,275.94Z" transform="translate(-73.22 -185.54)" style="fill:#fff"/><path d="M520.09,319.32q-9.41-9.18-9.41-23.22t9.41-23.17a33.51,33.51,0,0,1,46,0q9.31,9.14,9.31,23.17T566,319.32a33.33,33.33,0,0,1-45.95,0Zm35.1-10q4.54-4.95,4.54-13.23t-4.54-13.23q-4.55-4.95-12.15-5t-12.15,5q-4.55,5-4.54,13.23t4.54,13.23q4.54,5,12.15,5T555.19,309.33Z" transform="translate(-73.22 -185.54)" style="fill:#fff"/><path d="M586.51,319.27q-9.41-9.13-9.41-23.17t9.41-23.17a31.76,31.76,0,0,1,23-9.14,32.46,32.46,0,0,1,18.72,5.58,29.1,29.1,0,0,1,11.43,15.48H621.3a12.09,12.09,0,0,0-11.52-6.93q-7.92,0-12.47,5t-4.54,13.23q0,8.28,4.54,13.23t12.47,5a12.09,12.09,0,0,0,11.52-6.93h18.36a29.09,29.09,0,0,1-11.43,15.48,32.45,32.45,0,0,1-18.72,5.58A31.75,31.75,0,0,1,586.51,319.27Z" transform="translate(-73.22 -185.54)" style="fill:#fff"/><path d="M645.06,327.87V264.69h15.39v63.18Z" transform="translate(-73.22 -185.54)" style="fill:#fff"/><path d="M709.58,327.87l-3.51-10.62H683.4l-3.51,10.62H663.5l22-63.36h18.72l21.87,63.36Zm-22.32-22.32h14.94L694.74,283Z" transform="translate(-73.22 -185.54)" style="fill:#fff"/><path d="M729.12,264.69H744.5v51.48h19.17v11.7H729.12Z" transform="translate(-73.22 -185.54)" style="fill:#fff"/><path d="M806,264.51v11.7H783.11V289.8h20.16v11.7H783.11v14.67H806v11.7H767.72V264.51Z" transform="translate(-73.22 -185.54)" style="fill:#fff"/><path d="M836.12,275.94a7.15,7.15,0,0,0-4.72,1.53,5.4,5.4,0,0,0-1.85,4.41,6.36,6.36,0,0,0,1.71,4.64,11.17,11.17,0,0,0,4.46,2.7q2.75.94,6.12,1.8a69.23,69.23,0,0,1,6.71,2.07,29.5,29.5,0,0,1,6.08,3,13.24,13.24,0,0,1,4.46,5.08,16.88,16.88,0,0,1,1.71,7.88,17.64,17.64,0,0,1-6.53,13.73q-6.53,5.72-17.19,5.71t-17.19-5.13q-6.53-5.13-6.52-14.58h16.38q.63,7.56,7.74,7.56a7.38,7.38,0,0,0,5.22-1.75,5.82,5.82,0,0,0,1.89-4.46,6,6,0,0,0-1.71-4.41,11.92,11.92,0,0,0-4.46-2.7q-2.75-1-6.12-1.85a61.52,61.52,0,0,1-6.71-2.11,32.73,32.73,0,0,1-6.07-3,12.83,12.83,0,0,1-4.46-5,16.64,16.64,0,0,1-1.71-7.79,17.25,17.25,0,0,1,6.57-14.13q6.57-5.31,16.79-5.31t16.51,4.64q6.3,4.64,6.57,14.63H843.05a8.44,8.44,0,0,0-2.21-5.27A6.4,6.4,0,0,0,836.12,275.94Z" transform="translate(-73.22 -185.54)" style="fill:#fff"/><path d="M120.63,320.86H106.29v-5.13h14.34a6.63,6.63,0,0,1,5.1,2,7.82,7.82,0,0,1,0,10,6.64,6.64,0,0,1-5.12,1.95v-5.1a2.7,2.7,0,0,0,1.77-.54,1.69,1.69,0,0,0,.57-1.32,1.73,1.73,0,0,0-.57-1.33A2.55,2.55,0,0,0,120.63,320.86Z" transform="translate(-73.22 -185.54)" style="fill:#fff"/><path d="M124.5,309.33a11.1,11.1,0,0,1-15.46,0A11.17,11.17,0,0,1,109,294a11.16,11.16,0,0,1,15.46,0,11.11,11.11,0,0,1,0,15.32Zm-3.33-11.7a7.18,7.18,0,0,0-8.82,0,5.8,5.8,0,0,0,0,8.1,7.18,7.18,0,0,0,8.82,0,5.79,5.79,0,0,0,0-8.1Z" transform="translate(-73.22 -185.54)" style="fill:#fff"/><path d="M119.16,283.21h8.19v5.13H106.29V280a8.07,8.07,0,0,1,1.89-5.7,6,6,0,0,1,4.56-2,6.56,6.56,0,0,1,3.57,1.11,6.06,6.06,0,0,1,2.46,3.63l8.58-5.16v6l-8.19,4.74Zm-9,0h5.07V280a2.35,2.35,0,0,0-2.51-2.52,2.56,2.56,0,0,0-1.84.69,2.42,2.42,0,0,0-.72,1.83Z" transform="translate(-73.22 -185.54)" style="fill:#fff"/><path d="M106.23,255.34v-5.13h21.12v5.13l-13.29,8.58h13.29v5.13H106.23v-5.13l13.29-8.58Z" transform="translate(-73.22 -185.54)" style="fill:#fff"/><path d="M127.35,233.08l-3.54,1.17v7.56l3.54,1.17v5.46l-21.12-7.32v-6.24l21.12-7.29Zm-7.44,7.44v-5l-7.5,2.49Z" transform="translate(-73.22 -185.54)" style="fill:#fff"/><path d="M106.29,218.42a11.88,11.88,0,0,1,2.93-8.28,10.53,10.53,0,0,1,15.19,0,11.85,11.85,0,0,1,2.94,8.28v7.41H106.29Zm17.16,2.28v-2.28a6,6,0,0,0-1.8-4.62,7.78,7.78,0,0,0-9.66,0,6,6,0,0,0-1.8,4.62v2.28Z" transform="translate(-73.22 -185.54)" style="fill:#fff"/><path d="M127.35,191l-3.54,1.17v7.56l3.54,1.17v5.46l-21.12-7.32v-6.24l21.12-7.29Zm-7.44,7.44v-5l-7.5,2.49Z" transform="translate(-73.22 -185.54)" style="fill:#fff"/><path d="M139.64,314.91v-4.79h19.71v4.79l-12.4,8h12.4v4.79H139.64v-4.79l12.4-8Z" transform="translate(-73.22 -185.54)" style="fill:#fff"/><path d="M159.35,294.13l-3.3,1.09v7.06l3.3,1.09v5.1l-19.71-6.83v-5.82l19.71-6.8Zm-6.94,6.94v-4.65l-7,2.32Z" transform="translate(-73.22 -185.54)" style="fill:#fff"/><path d="M156.67,285.58a10.35,10.35,0,0,1-14.42,0,9.88,9.88,0,0,1-2.84-7.15,10.1,10.1,0,0,1,1.74-5.82A9.05,9.05,0,0,1,146,269v5.71a3.76,3.76,0,0,0-2.16,3.58,5,5,0,0,0,1.54,3.88,6.7,6.7,0,0,0,8.23,0,5,5,0,0,0,1.54-3.88,3.76,3.76,0,0,0-2.16-3.58V269a9.05,9.05,0,0,1,4.82,3.56,10.1,10.1,0,0,1,1.74,5.82A9.88,9.88,0,0,1,156.67,285.58Z" transform="translate(-73.22 -185.54)" style="fill:#fff"/><path d="M159.35,266.66H139.69v-4.79h19.66Z" transform="translate(-73.22 -185.54)" style="fill:#fff"/><path d="M156.69,256.6a10.36,10.36,0,0,1-14.43,0,10.43,10.43,0,0,1,0-14.31,10.42,10.42,0,0,1,14.43,0,10.37,10.37,0,0,1,0,14.29Zm-3.11-10.92a6.7,6.7,0,0,0-8.23,0,5.41,5.41,0,0,0,0,7.56,6.7,6.7,0,0,0,8.23,0,5.41,5.41,0,0,0,0-7.56Z" transform="translate(-73.22 -185.54)" style="fill:#fff"/><path d="M139.64,224.22v-4.79h19.71v4.79l-12.4,8h12.4V237H139.64v-4.79l12.4-8Z" transform="translate(-73.22 -185.54)" style="fill:#fff"/><path d="M159.35,203.44l-3.3,1.09v7.06l3.3,1.09v5.1l-19.71-6.83v-5.82l19.71-6.8Zm-6.94,6.94v-4.65l-7,2.32Z" transform="translate(-73.22 -185.54)" style="fill:#fff"/><path d="M139.69,196.67v-4.79h16v-6h3.64v10.75Z" transform="translate(-73.22 -185.54)" style="fill:#fff"/><path d="M73.22,327.41V311h5.4v10.84h4.61a6,6,0,0,1-1.44-4.12,9.94,9.94,0,0,1,.81-4.23,6.3,6.3,0,0,1,2.14-2.63,10,10,0,0,1,5.65-1.76,9,9,0,0,1,6.68,2.48,9.23,9.23,0,0,1,2.47,6.8,10.38,10.38,0,0,1-2.07,6.82A7.65,7.65,0,0,1,92.12,328v-6.08a2.58,2.58,0,0,0,1.71-1.12,4.26,4.26,0,0,0,.67-2.52,2.93,2.93,0,0,0-1.06-2.43A4.41,4.41,0,0,0,90.6,315a3.93,3.93,0,0,0-2.74.88,3,3,0,0,0-1,2.36,3.49,3.49,0,0,0,.63,2.25,2.6,2.6,0,0,0,1.57,1v5.94Z" transform="translate(-73.22 -185.54)" style="fill:#fff"/><path d="M94.31,297.89v-2.2h5.22v3.13A8.15,8.15,0,0,1,98,304.07q-1.49,1.85-5.13,1.85H84.56v1.87H79.44v-1.87h-4.9v-6.16h4.9v-4h5.11v4h8.35Q94.31,299.77,94.31,297.89Z" transform="translate(-73.22 -185.54)" style="fill:#fff"/><path d="M96.9,292.1a11.58,11.58,0,0,1-14.78,0,8.49,8.49,0,0,1-2.9-6.5,6.82,6.82,0,0,1,2.84-5.89H79.44v-6.16H99.53v6.16H96.62a7,7,0,0,1,3.17,6A8.42,8.42,0,0,1,96.9,292.1ZM93.16,281a4.89,4.89,0,0,0-3.67-1.33A4.83,4.83,0,0,0,85.83,281a4.28,4.28,0,0,0,0,6.12,4.89,4.89,0,0,0,3.67,1.33,4.83,4.83,0,0,0,3.65-1.33,4.28,4.28,0,0,0,0-6.12Z" transform="translate(-73.22 -185.54)" style="fill:#fff"/><line x1="16.78" y1="80.46" x2="16.78" y2="6.46" style="fill:none;stroke:#fff;stroke-miterlimit:10;stroke-width:8px"/></g></svg>